<?xml version="1.0" standalone="no"?>
<!DOCTYPE svg PUBLIC "-//W3C//DTD SVG 20010904//EN"
 "http://www.w3.org/TR/2001/REC-SVG-20010904/DTD/svg10.dtd">
<svg version="1.0" xmlns="http://www.w3.org/2000/svg"
 width="1663.000000pt" height="1663.000000pt" viewBox="0 0 1663.000000 1663.000000"
 preserveAspectRatio="xMidYMid meet">
<metadata>
Created by potrace 1.11, written by Peter Selinger 2001-2013
</metadata>
<g transform="translate(0.000000,1663.000000) scale(0.100000,-0.100000)"
fill="#000000" stroke="none">
<path d="M7870 13509 c-851 -50 -1620 -250 -2366 -613 -1093 -533 -1979 -1389
-2488 -2403 l-46 -93 5240 0 5240 0 -51 103 c-476 948 -1307 1777 -2321 2312
-733 388 -1525 615 -2388 685 -182 15 -640 20 -820 9z"/>
<path d="M2566 9157 c-8 -45 -25 -152 -35 -237 -108 -851 16 -1717 360 -2509
60 -137 216 -443 284 -556 65 -108 234 -363 245 -370 5 -3 482 542 1060 1212
l1052 1217 -39 17 c-21 9 -324 145 -673 301 -349 157 -988 444 -1420 638 -432
194 -792 356 -801 361 -14 7 -19 -4 -33 -74z"/>
<path d="M13100 8705 c-415 -194 -1484 -693 -2375 -1109 l-1620 -755 -22 42
c-26 49 -31 44 -6 -8 9 -19 15 -37 12 -39 -3 -3 -2758 -1290 -4453 -2079
l-389 -181 44 -39 c330 -295 875 -644 1329 -852 1633 -747 3516 -752 5150 -13
1128 510 2070 1386 2607 2425 306 591 472 1154 535 1818 16 167 16 642 0 810
-20 214 -39 336 -50 334 -4 0 -347 -160 -762 -354z"/>
</g>
</svg>
