<?xml version="1.0" encoding="UTF-8" standalone="no"?>
<svg
   xmlns:dc="http://purl.org/dc/elements/1.1/"
   xmlns:cc="http://creativecommons.org/ns#"
   xmlns:rdf="http://www.w3.org/1999/02/22-rdf-syntax-ns#"
   xmlns:svg="http://www.w3.org/2000/svg"
   xmlns="http://www.w3.org/2000/svg"
   width="157.80151mm"
   height="210.66673mm"
   viewBox="0 0 559.13922 746.45693"
   id="svg2"
   version="1.1">
  <defs
     id="defs4" />
  <metadata
     id="metadata7">
    <rdf:RDF>
      <cc:Work
         rdf:about="">
        <dc:format>image/svg+xml</dc:format>
        <dc:type
           rdf:resource="http://purl.org/dc/dcmitype/StillImage" />
        <dc:title></dc:title>
      </cc:Work>
    </rdf:RDF>
  </metadata>
  <path
     style="display:inline;fill:#fde5a9;fill-opacity:1"
     d="M 559,373.22846 559,0 279.5,0 0,0 l 0,373.22846 0,373.22846 279.5,0 279.5,0 0,-373.22846 z"
     id="path3357" />
  <path
     id="path4189"
     d="m 0.52487,251.03519 0,-250.51783 279.30718,0 279.30718,0 0,250.51783 0,250.51783 -279.30718,0 -279.30718,0 0,-250.51783 z M 470.2458,486.48097 c 0.83338,-0.0521 17.50089,0.0221 37.03892,0.16502 19.53803,0.14291 35.87544,-0.0919 36.30536,-0.52184 1.5878,-1.58778 -2.39195,-3.80675 -8.12861,-4.53225 l -5.9067,-0.747 -6.88876,-12.89577 c -11.49229,-21.51361 -17.33591,-29.12227 -27.77855,-36.16889 -7.77985,-5.24979 -10.62289,-8.90017 -12.53157,-16.09018 -0.66368,-2.50013 -3.39369,-8.63681 -6.0667,-13.63706 -5.56777,-10.41538 -9.07385,-20.9729 -9.07385,-27.32324 0,-4.62864 -2.43001,-7.52702 -6.31068,-7.52702 -2.00788,0 -3.79084,-3.68239 -3.79084,-7.82934 0,-1.45589 -0.9839,-3.69437 -2.18645,-4.97442 -2.08888,-2.22352 -2.10768,-2.41439 -0.42127,-4.27786 1.6859,-1.8629 1.67366,-1.99948 -0.27252,-3.04105 -1.12074,-0.5998 -3.77222,-1.09124 -5.89219,-1.0921 -3.89565,-0.002 -5.86114,-0.86065 -15.6311,-6.83191 -2.96779,-1.81387 -7.8961,-3.99898 -10.95181,-4.8558 -9.06681,-2.54233 -12.97136,-4.57696 -15.73384,-8.19875 -3.93343,-5.15699 -8.55591,-16.06283 -9.2336,-21.7849 -0.42306,-3.57207 -1.45605,-6.05599 -3.47467,-8.35505 -2.53313,-2.88509 -2.87262,-4.05593 -2.87262,-9.9072 0,-3.6495 0.51285,-9.02683 1.13968,-11.94963 0.87187,-4.06532 0.83686,-7.2609 -0.14896,-13.598 -1.14454,-7.35741 -1.09579,-8.83038 0.43593,-13.17084 3.89357,-11.03334 3.95024,-11.72588 1.67717,-20.49504 -1.63812,-6.31956 -1.98384,-9.75166 -1.47885,-14.68069 0.57634,-5.62547 0.38893,-6.77639 -1.49309,-9.169 -1.1837,-1.50483 -2.15218,-3.27736 -2.15218,-3.93896 0,-0.66161 -1.12242,-2.25738 -2.49425,-3.54615 -2.96534,-2.78578 -2.67907,-3.45094 2.65672,-6.17304 l 4.066,-2.07433 -4.23759,-3.91212 c -4.15253,-3.8336 -4.2239,-4.01165 -3.55567,-8.87026 l 0.68192,-4.95814 -5.1275,-3.29031 c -4.58695,-2.94345 -5.29272,-3.89133 -6.69467,-8.9915 -5.24271,-19.07241 -11.23266,-32.54137 -18.49514,-41.588 -4.89143,-6.0931 -26.33339,-26.258213 -34.17942,-32.144073 C 312.56099,77.14069 291.05995,66.032 279.32697,61.9509 l -9.59645,-3.33795 -21.2132,-0.006 c -23.62681,-0.007 -27.94726,0.67002 -39.66637,6.21192 -9.01825,4.26467 -13.91082,8.44435 -16.75166,14.3108 -1.85203,3.824497 -2.9494,4.770503 -7.47243,6.44174 -3.90445,1.442667 -5.46106,2.594155 -5.90661,4.369351 -0.33273,1.325739 -2.15176,3.590231 -4.04229,5.032202 -2.50296,1.909152 -3.43731,3.410308 -3.43731,5.522527 0,2.41686 -0.58703,3.09445 -3.51928,4.06218 -5.75431,1.8991 -10.15655,8.05046 -12.7283,17.78557 -2.19722,8.31742 -3.95547,10.96597 -3.95547,5.95838 0,-3.25708 -1.34023,-3.20354 -3.98536,0.15918 -2.36528,3.00698 -4.68452,10.42975 -5.63144,18.02356 -0.3464,2.77792 -2.05474,12.09658 -3.79631,20.70813 -2.76726,13.68325 -3.17204,17.75885 -3.21046,32.32488 -0.0484,18.32914 0.96919,23.59559 6.59622,34.1404 5.98352,11.21287 2.60216,25.69848 -11.09101,47.51352 -8.31976,13.25446 -28.87645,39.44336 -42.18928,53.74847 -10.74544,11.54635 -15.71554,18.28645 -19.71915,26.74172 l -3.34125,7.05644 -0.01,16.7461 -0.01,16.7461 -4.0309,5.84855 c -4.00854,5.81611 -4.03278,5.90906 -4.37058,16.75769 -0.27444,8.81378 8e-4,11.62668 1.43301,14.64483 1.52636,3.21656 1.58137,4.03535 0.39591,5.89216 -5.64321,8.83903 -8.1932,13.74391 -9.46696,18.2096 -2.24589,7.87391 -3.86796,17.13389 -3.4812,19.87321 0.33119,2.34573 0.76765,2.48671 9.43862,3.0489 6.92804,0.44919 408.4957,0.4452 415.67777,-0.004 l -4e-5,-9e-5 z"
     style="display:inline;fill:#fde5a9;fill-opacity:1" />
  <path
     id="rect4202"
     d="m 15.5357,13.96427 291.07141,0 0,472.85715 -291.07141,0 z"
     style="display:inline;fill:#7498a4;fill-opacity:1" />
  <path
     id="rect4204"
     d="m 267.69043,13.96427 275.88101,0 0,472.85715 -275.88101,0 z"
     style="display:inline;fill:#e01825;fill-opacity:1" />
  <path
     id="rect4153"
     d="m 15.5357,486.8214 528.03571,0 0,243.47307 -528.03571,0 z"
     style="display:inline;fill:#00324d;fill-opacity:1" />
  <path
     d="m 52.95037,501.74343 q 9.48889,0 14.71005,2.27007 5.22116,2.27007 9.7613,6.81021 l -9.08028,9.08028 q -4.54014,-5.44817 -12.71238,-5.44817 -8.17225,0 -10.44232,3.85912 -2.27007,3.85912 0,6.5832 2.27007,2.72408 10.44232,4.08612 8.62626,0.90803 15.66347,5.67518 7.03722,4.76714 7.03722,15.20946 0,8.17225 -7.53663,14.07443 -7.49123,5.90218 -17.47954,5.90218 -9.48889,0 -15.84508,-2.72408 -6.35619,-2.72408 -10.89633,-7.26422 l 9.08027,-9.08028 q 4.54014,5.44817 15.43648,6.35619 9.08027,0 11.30494,-3.85911 2.27007,-3.85912 0,-7.71824 -2.22467,-3.85912 -11.30494,-4.76715 -8.17225,-0.90802 -14.98246,-4.99415 -6.81021,-4.08612 -6.81021,-14.07443 0,-9.03487 7.71824,-14.48304 7.76363,-5.49357 15.93588,-5.49357 z"
     style="font-style:normal;font-variant:normal;font-weight:bold;font-stretch:normal;font-size:92.98204041px;line-height:125%;font-family:Nevis;-inkscape-font-specification:'Nevis Bold';letter-spacing:0px;word-spacing:0px;fill:#7498a4;fill-opacity:1;stroke:none;stroke-width:1px;stroke-linecap:butt;stroke-linejoin:miter;stroke-opacity:1"
     id="path4328" />
  <path
     d="m 120.96165,569.84551 q -14.52844,0 -24.28974,-9.7613 -9.7613,-9.8067 -9.7613,-24.28974 0,-14.52844 9.7613,-24.28974 9.7613,-9.7613 24.28974,-9.7613 14.52844,0 24.28974,9.7613 9.7613,9.7613 9.7613,24.28974 0,14.52845 -9.7613,24.28974 -9.7613,9.7613 -24.28974,9.7613 z m 0.0454,-12.71239 q 9.03488,0 14.71005,-6.12918 5.67518,-6.12919 5.67518,-15.20947 0,-9.08028 -5.67518,-15.20946 -5.67517,-6.12919 -14.80085,-6.12919 -9.03488,0 -14.71005,6.12919 -5.67517,6.12918 -5.67517,15.20946 0,9.08028 5.67517,15.20947 5.67517,6.12918 14.80085,6.12918 z"
     style="font-style:normal;font-variant:normal;font-weight:bold;font-stretch:normal;font-size:92.98204041px;line-height:125%;font-family:Nevis;-inkscape-font-specification:'Nevis Bold';letter-spacing:0px;word-spacing:0px;fill:#7498a4;fill-opacity:1;stroke:none;stroke-width:1px;stroke-linecap:butt;stroke-linejoin:miter;stroke-opacity:1"
     id="path4330" />
  <path
     d="m 165.1826,569.84551 0,-68.10208 4.54014,0 42.67731,42.67731 0,-42.67731 13.62041,0 0,68.10208 -4.99415,0 -42.22329,-42.22329 0,42.22329 -13.62042,0 z"
     style="font-style:normal;font-variant:normal;font-weight:bold;font-stretch:normal;font-size:92.98204041px;line-height:125%;font-family:Nevis;-inkscape-font-specification:'Nevis Bold';letter-spacing:0px;word-spacing:0px;fill:#7498a4;fill-opacity:1;stroke:none;stroke-width:1px;stroke-linecap:butt;stroke-linejoin:miter;stroke-opacity:1"
     id="path4332" />
  <path
     d="m 240.1857,569.84551 0,-68.10208 13.62042,0 0,27.24083 31.73557,0 0,-27.28623 13.62041,0 0,68.10208 -13.62041,0.0454 0,-28.14886 -31.73557,0 0,28.14886 -13.62042,0 z"
     style="font-style:normal;font-variant:normal;font-weight:bold;font-stretch:normal;font-size:92.98204041px;line-height:125%;font-family:Nevis;-inkscape-font-specification:'Nevis Bold';letter-spacing:0px;word-spacing:0px;fill:#7498a4;fill-opacity:1;stroke:none;stroke-width:1px;stroke-linecap:butt;stroke-linejoin:miter;stroke-opacity:1"
     id="path4334" />
  <path
     d="m 313.73594,569.84551 0,-68.05668 50.03233,-0.0454 0,12.71239 -36.41192,0 0,14.52844 27.28624,0 0,12.66699 -27.28624,0 0,15.48187 36.32111,0 0,12.71239 -49.94152,0 z"
     style="font-style:normal;font-variant:normal;font-weight:bold;font-stretch:normal;font-size:92.98204041px;line-height:125%;font-family:Nevis;-inkscape-font-specification:'Nevis Bold';letter-spacing:0px;word-spacing:0px;fill:#7498a4;fill-opacity:1;stroke:none;stroke-width:1px;stroke-linecap:butt;stroke-linejoin:miter;stroke-opacity:1"
     id="path4336" />
  <path
     d="m 377.47949,501.69803 13.57502,0 0,68.14748 -13.57502,0 0,-68.14748 z"
     style="font-style:normal;font-variant:normal;font-weight:bold;font-stretch:normal;font-size:92.98204041px;line-height:125%;font-family:Nevis;-inkscape-font-specification:'Nevis Bold';letter-spacing:0px;word-spacing:0px;fill:#7498a4;fill-opacity:1;stroke:none;stroke-width:1px;stroke-linecap:butt;stroke-linejoin:miter;stroke-opacity:1"
     id="path4338" />
  <path
     d="m 404.90192,569.84551 0,-68.10208 4.54014,0 29.5109,33.59703 29.5563,-33.59703 4.54014,0 0,68.10208 -13.62042,0 -0.0454,-39.4992 -20.43062,22.70069 -20.43063,-22.70069 0,39.4992 -13.62041,0 z"
     style="font-style:normal;font-variant:normal;font-weight:bold;font-stretch:normal;font-size:92.98204041px;line-height:125%;font-family:Nevis;-inkscape-font-specification:'Nevis Bold';letter-spacing:0px;word-spacing:0px;fill:#7498a4;fill-opacity:1;stroke:none;stroke-width:1px;stroke-linecap:butt;stroke-linejoin:miter;stroke-opacity:1"
     id="path4340" />
  <path
     d="m 507.78147,501.74343 q 8.17225,0 15.43647,5.49357 7.30962,5.44817 7.30962,14.48304 -0.45401,6.3562 -3.4051,11.12334 -2.95109,4.76715 -9.53429,6.5832 -6.5832,1.81606 -6.99182,12.25838 l -12.71238,0 q 0,-8.62627 2.95109,-14.30144 2.95109,-5.67517 10.35151,-7.30962 6.21999,-1.08964 6.447,-9.17108 -1.58905,-6.21999 -12.53078,-6.447 -8.17225,0 -12.71239,5.44817 l -9.08028,-9.08028 q 4.54014,-4.54014 9.7613,-6.81021 5.22116,-2.27007 14.71005,-2.27007 z m -9.8975,61.74589 q 0,2.72408 1.81605,4.54014 1.81606,1.81605 4.99415,1.81605 3.1781,0 4.99416,-1.81605 1.81605,-1.81606 1.81605,-4.54014 0,-2.72409 -1.81605,-4.54014 -1.81606,-1.86146 -5.08496,-1.86146 -3.08729,0 -4.90335,1.86146 -1.81605,1.81605 -1.81605,4.54014 z"
     style="font-style:normal;font-variant:normal;font-weight:bold;font-stretch:normal;font-size:92.98204041px;line-height:125%;font-family:Nevis;-inkscape-font-specification:'Nevis Bold';letter-spacing:0px;word-spacing:0px;fill:#7498a4;fill-opacity:1;stroke:none;stroke-width:1px;stroke-linecap:butt;stroke-linejoin:miter;stroke-opacity:1"
     id="path4342" />
  <path
     d="m 27.92221,716.3067 0,-129.74668 8.64978,0 81.30793,81.30792 0,-81.30792 25.94933,0 0,129.74668 -9.51475,0 -80.44295,-80.44294 0,80.44294 -25.94934,0 z"
     style="font-style:normal;font-variant:normal;font-weight:bold;font-stretch:normal;font-size:177.1474762px;line-height:125%;font-family:Nevis;-inkscape-font-specification:'Nevis Bold';letter-spacing:0px;word-spacing:0px;fill:#7498a4;fill-opacity:1;stroke:none;stroke-width:1px;stroke-linecap:butt;stroke-linejoin:miter;stroke-opacity:1"
     id="path4315" />
  <path
     d="m 229.11607,716.3067 q -27.67929,0 -46.27631,-18.59702 -18.59703,-18.68352 -18.59703,-46.27632 0,-27.67929 18.59703,-46.27632 18.59702,-18.59702 46.27631,-18.59702 27.6793,0 46.27632,18.59702 18.59703,18.59703 18.59703,46.27632 0,27.67929 -18.59703,46.27632 -18.59702,18.59702 -46.27632,18.59702 z m 0.0865,-24.21938 q 17.21306,0 28.02529,-11.6772 10.81222,-11.6772 10.81222,-28.97676 0,-17.29956 -10.81222,-28.97676 -10.81223,-11.6772 -28.19828,-11.6772 -17.21306,0 -28.02529,11.6772 -10.81222,11.6772 -10.81222,28.97676 0,17.29956 10.81222,28.97676 10.81223,11.6772 28.19828,11.6772 z"
     style="font-style:normal;font-variant:normal;font-weight:bold;font-stretch:normal;font-size:177.1474762px;line-height:125%;font-family:Nevis;-inkscape-font-specification:'Nevis Bold';letter-spacing:0px;word-spacing:0px;fill:#7498a4;fill-opacity:1;stroke:none;stroke-width:1px;stroke-linecap:butt;stroke-linejoin:miter;stroke-opacity:1"
     id="path4317" />
  <path
     d="m 313.3649,716.3067 0,-129.74668 56.56956,0 q 45.41134,0 45.41134,37.36704 0,38.75101 -45.32484,38.75101 l -30.70672,0 0,53.62863 -25.94934,0 z m 25.94934,-77.84801 36.32907,0 q 15.6561,-0.25949 16.08859,-14.27213 -0.43249,-12.80168 -15.82909,-13.32066 l -36.58857,0 0,27.59279 z"
     style="font-style:normal;font-variant:normal;font-weight:bold;font-stretch:normal;font-size:177.1474762px;line-height:125%;font-family:Nevis;-inkscape-font-specification:'Nevis Bold';letter-spacing:0px;word-spacing:0px;fill:#7498a4;fill-opacity:1;stroke:none;stroke-width:1px;stroke-linecap:butt;stroke-linejoin:miter;stroke-opacity:1"
     id="path4319" />
  <path
     d="m 434.46184,716.3067 0,-129.66018 95.32057,-0.0865 0,24.21938 -69.37123,0 0,27.67929 51.98517,0 0,24.13289 -51.98517,0 0,29.49574 69.19823,0 0,24.21938 -95.14757,0 z"
     style="font-style:normal;font-variant:normal;font-weight:bold;font-stretch:normal;font-size:177.1474762px;line-height:125%;font-family:Nevis;-inkscape-font-specification:'Nevis Bold';letter-spacing:0px;word-spacing:0px;fill:#7498a4;fill-opacity:1;stroke:none;stroke-width:1px;stroke-linecap:butt;stroke-linejoin:miter;stroke-opacity:1"
     id="path4321" />
  <path
     id="rect4214"
     d="m 248.51758,58.60742 c -23.62681,-0.007 -27.94691,0.66904 -39.66602,6.21094 -9.01825,4.26467 -13.91111,8.4441 -16.75195,14.31054 -1.85203,3.824499 -2.94963,4.772127 -7.47266,6.443364 -3.90445,1.442667 -5.4607,2.593944 -5.90625,4.36914 -0.33273,1.325739 -2.15244,3.589279 -4.04297,5.03125 -2.50296,1.909152 -3.4375,3.411221 -3.4375,5.523436 0,2.41686 -0.58728,3.09477 -3.51953,4.0625 -5.75431,1.8991 -10.15676,8.05005 -12.72851,17.78516 -2.19722,8.31742 -3.95508,10.96462 -3.95508,5.95703 0,-3.25708 -1.33925,-3.20256 -3.98438,0.16016 -2.36528,3.00698 -4.68589,10.42963 -5.63281,18.02344 -0.3464,2.77791 -2.05335,12.09743 -3.79492,20.70898 -2.76726,13.68325 -3.17252,17.75819 -3.21094,32.32422 -0.0484,18.32914 0.96868,23.59581 6.59571,34.14062 5.98352,11.21287 2.60332,25.69863 -11.08985,47.51368 -8.31976,13.25445 -28.87662,39.44293 -42.18945,53.74804 -10.74544,11.54635 -15.71514,18.28692 -19.71875,26.74219 l -3.3418,7.05664 -0.01,16.74609 -0.01,16.7461 -4.03125,5.84765 c -4.00853,5.81611 -4.03329,5.90919 -4.37109,16.75782 -0.27444,8.81378 10e-4,11.62638 1.43359,14.64453 1.52636,3.21656 1.58195,4.03577 0.39649,5.89258 -5.64321,8.83903 -8.19304,13.74329 -9.4668,18.20898 -2.24589,7.87391 -3.86918,17.13373 -3.48242,19.87305 0.33119,2.34573 0.76848,2.48664 9.43945,3.04883 6.92804,0.44918 408.49566,0.44529 415.67773,-0.004 0.83338,-0.0521 17.50104,0.0231 37.03907,0.16601 16.93287,0.12386 31.42209,-0.0386 35.27539,-0.36328 l 0,-2.57226 c -1.48067,-0.9164 -4.03415,-1.73146 -7.09961,-2.11914 l -5.90625,-0.7461 -6.88867,-12.89648 c -11.49229,-21.51361 -17.33666,-29.1233 -27.7793,-36.16992 -7.77985,-5.24979 -10.62257,-8.89984 -12.53125,-16.08985 -0.66368,-2.50013 -3.3934,-8.63647 -6.06641,-13.63672 -5.56777,-10.41538 -9.07422,-20.97192 -9.07422,-27.32226 0,-4.62864 -2.42987,-7.52735 -6.31054,-7.52735 -2.00788,0 -3.79102,-3.68312 -3.79102,-7.83007 0,-1.45589 -0.983,-3.69456 -2.18555,-4.97461 -2.08888,-2.22352 -2.10828,-2.41388 -0.42187,-4.27735 1.6859,-1.8629 1.67469,-1.99944 -0.27148,-3.04101 -1.12075,-0.5998 -3.77261,-1.09094 -5.89258,-1.0918 -3.89565,-0.002 -5.8609,-0.86077 -15.63086,-6.83203 -2.96779,-1.81387 -7.89742,-3.99865 -10.95313,-4.85547 -9.06681,-2.54233 -12.96994,-4.57743 -15.73242,-8.19922 -3.93343,-5.15699 -8.55668,-16.06308 -9.23437,-21.78515 -0.42306,-3.57207 -1.45599,-6.05641 -3.47461,-8.35547 -2.53313,-2.88509 -2.87305,-4.05498 -2.87305,-9.90625 0,-3.6495 0.51379,-9.02642 1.14062,-11.94922 0.87187,-4.06532 0.83543,-7.26251 -0.15039,-13.59961 -1.14454,-7.35741 -1.09422,-8.82946 0.4375,-13.16992 3.89357,-11.03334 3.94886,-11.72498 1.67579,-20.49414 -1.63813,-6.31956 -1.98351,-9.75261 -1.47852,-14.68164 0.57634,-5.62547 0.38983,-6.77732 -1.49219,-9.16993 -1.1837,-1.50483 -2.15234,-3.2759 -2.15234,-3.9375 0,-0.66161 -1.12231,-2.2581 -2.49414,-3.54687 -2.96534,-2.78578 -2.67954,-3.44978 2.65625,-6.17188 l 4.0664,-2.07617 -4.23828,-3.91211 c -4.15253,-3.8336 -4.22291,-4.01053 -3.55468,-8.86914 l 0.68164,-4.95898 -5.12891,-3.28906 c -4.58695,-2.94345 -5.29141,-3.89202 -6.69336,-8.99219 -5.24271,-19.07241 -11.23361,-32.54126 -18.49609,-41.58789 C 350.33076,109.55525 328.88853,89.389674 321.0425,83.503814 312.55964,77.14022 291.05868,66.03218 279.3257,61.95108 l -9.5957,-3.33789 -21.21289,-0.006 z"
     style="display:inline;fill:#fde5a9;fill-opacity:1" />
  <path
     style="display:inline;fill:#7498a4;fill-opacity:1"
     d="M 543.42182,486.12649 C 544.72041,484.02533 540.85733,482 535.55101,482 c -3.11154,0 -5.74873,-0.53331 -6.37628,-1.28946 -0.58858,-0.7092 -3.90794,-6.8967 -7.37635,-13.75 -8.82018,-17.428 -18.15922,-29.85011 -25.56535,-34.00519 -8.83092,-4.95444 -12.65342,-9.5119 -14.23709,-16.97446 -0.83026,-3.91237 -2.65474,-8.20358 -4.83868,-11.38069 -4.90911,-7.14157 -10.4647,-22.79458 -10.2913,-28.99602 C 467.02043,370.07988 465.8123,368 462.44898,368 458.95307,368 457,365.38926 457,360.71614 c 0,-3.30964 -0.55211,-4.58918 -2.75,-6.37331 l -2.75,-2.23229 2.39439,-1.71311 c 2.28515,-1.63495 2.31065,-1.77433 0.55887,-3.05527 C 453.42711,346.59182 450.11032,346 446.93132,346 c -3.92467,0 -6.08636,-0.48189 -6.9773,-1.5554 -2.48841,-2.99835 -14.56647,-9.42296 -19.48624,-10.3652 -9.14196,-1.75087 -12.2435,-3.66491 -16.42693,-10.13749 C 399.63176,317.12018 396,307.26794 396,302.12865 c 0,-2.63435 -0.73246,-4.10988 -3.00615,-6.05582 -2.83019,-2.42223 -3.01019,-3.01184 -3.07527,-10.07283 -0.038,-4.125 0.58862,-9.82307 1.39252,-12.66237 1.28493,-4.53824 1.28266,-5.92861 -0.0188,-11.5 -1.76689,-7.5641 -1.18093,-14.33127 1.64185,-18.9614 2.64047,-4.33111 2.60831,-9.18164 -0.11591,-17.48018 -1.95672,-5.96056 -2.06576,-7.32283 -1.05742,-13.20954 1.08972,-6.36173 1.04918,-6.63321 -1.31828,-8.8273 -1.34343,-1.24504 -2.44259,-3.13344 -2.44259,-4.19645 0,-1.06301 -1.125,-2.66987 -2.5,-3.5708 -3.64728,-2.38979 -3.08147,-4.09818 2,-6.03881 2.475,-0.94521 4.5,-2.0869 4.5,-2.53708 0,-0.45019 -1.56047,-1.73922 -3.4677,-2.86451 -4.02009,-2.37191 -5.35491,-6.13388 -3.71652,-10.47446 1.23451,-3.2706 0.82109,-4.6771 -1.3748,-4.6771 -0.79254,0 -1.44098,-0.44646 -1.44098,-0.99213 0,-0.54567 -1.62382,-1.78317 -3.60849,-2.75 C 374.88952,163.5519 374.69667,163.16046 371.85968,152 367.66355,135.49286 359.62809,119.71037 350.99995,111.02933 335.63963,95.574826 319.86662,81.96187 313.76996,78.89784 310.32145,77.1647 306.24563,74.86106 304.71257,73.77863 303.1795,72.6962 296.46116,69.37732 289.78291,66.40335 275.95907,60.24726 265.21764,58 249.61672,58 c -16.72382,0 -29.00455,1.74029 -36.96289,5.23798 -12.86903,5.65593 -19.01545,10.67754 -20.69253,16.90574 -0.91599,3.401726 -1.50319,3.889106 -6.67817,5.542966 -4.91449,1.57062 -5.78113,2.23187 -6.47531,4.94067 -0.54544,2.1284 -1.75012,3.52031 -3.77138,4.35755 -3.01742,1.24985 -4.69594,4.13898 -3.5149,6.049954 0.9737,1.57547 -1.45363,3.96514 -4.02762,3.96514 -2.64977,0 -8.52532,6.0836 -10.148,10.50734 -0.60376,1.64596 -1.66156,5.46766 -2.35067,8.49266 -0.68912,3.025 -1.69594,6.05755 -2.2374,6.73899 -1.49311,1.87914 -2.99839,0.35553 -2.31983,-2.34808 0.79334,-3.1609 -0.78505,-3.03649 -3.38332,0.26667 -2.659,3.38039 -4.71746,10.84865 -5.53294,20.07398 -0.35157,3.97736 -1.74939,11.8164 -3.10625,17.42009 -6.49009,26.80331 -5.55639,53.21919 2.3419,66.25622 3.38409,5.58583 3.56852,6.34192 3.38327,13.87067 -0.24404,9.91852 -3.5777,19.05911 -10.9575,30.04449 -2.85075,4.24356 -5.18318,7.95117 -5.18318,8.23914 0,2.0702 -29.72723,40.17947 -36.61398,46.93783 -13.948,13.68798 -23.23878,26.99785 -25.85392,37.03807 -1.78229,6.84268 -1.98763,18.63042 -0.46776,26.85218 l 1.06435,5.75757 -4.08134,5.40569 c -5.54557,7.34505 -5.85188,8.45541 -5.68924,20.62308 0.11456,8.57014 0.47902,10.98747 1.89189,12.548 2.45767,2.71452 2.2905,3.3514 -2.60551,9.92633 -2.73355,3.67093 -5.13584,8.45582 -6.45098,12.84908 -2.61024,8.71956 -4.65794,20.84733 -3.86767,22.90675 0.53504,1.39429 21.8113,1.55328 210.69608,1.57439 151.43565,0.0169 210.67713,-0.28489 212.1645,-1.08091 1.51937,-0.81314 2.63463,-0.79877 4.22893,0.0545 1.49021,0.79753 6.51797,0.99477 16.125,0.63257 16.844,-0.63503 16.76218,-0.63503 37.62228,-0.002 10.20476,0.3099 16.89384,0.13191 17.25919,-0.45924 z M 119.5,464 c -0.33992,-0.55 0.28197,-1 1.38197,-1 1.1,0 2.27811,0.45 2.61803,1 0.33992,0.55 -0.28197,1 -1.38197,1 -1.1,0 -2.27811,-0.45 -2.61803,-1 z m -4.67426,-1.22574 c 0.55,-0.55 1.53725,-0.66795 2.19389,-0.26213 0.90708,0.56061 0.87942,0.93223 -0.11512,1.54689 -1.70594,1.05432 -3.38199,0.0185 -2.07877,-1.28476 z m -6.6825,0.33543 c -0.85112,-0.53929 -0.97792,-1.09383 -0.34024,-1.48793 1.37119,-0.84745 4.32674,0.35929 3.63224,1.48302 -0.68653,1.11083 -1.54462,1.11211 -3.292,0.005 z m -8.59953,-1.76484 c -0.715,0.27437 -1.79962,-7.6e-4 -2.41027,-0.61141 -0.67539,-0.67539 -4.52208,-1.0369 -9.82075,-0.92296 -6.52026,0.14021 -8.42382,-0.0993 -7.57045,-0.95272 1.6699,-1.6699 10.83726,-2.29807 15.08481,-1.03365 2.02012,0.60136 5.36459,1.59821 7.43216,2.21523 2.06756,0.61701 3.50275,1.53679 3.18931,2.04396 -0.3386,0.54787 -1.38869,0.4839 -2.58735,-0.1576 -1.1096,-0.59384 -2.60245,-0.85522 -3.31746,-0.58085 z m 44.64445,-41.60633 c -0.46613,-2.4204 1.50601,-2.17849 2.85963,0.35078 0.95762,1.78933 0.85664,2.03894 -0.70333,1.73852 -1.00182,-0.19293 -1.97216,-1.13312 -2.1563,-2.0893 z M 137,404.91228 c 0,-2.42819 1.94793,-10.68937 3.28043,-13.91228 1.42373,-3.44359 4.28152,-21.76687 4.65665,-29.85699 0.0358,-0.77209 0.69565,-1.11418 1.53089,-0.79367 0.80739,0.30982 1.74132,0.12103 2.07541,-0.41953 0.33409,-0.54057 1.136,-0.9176 1.78203,-0.83785 0.64602,0.0798 1.73144,0.0917 2.41205,0.0265 1.51658,-0.14521 5.94026,-6.98621 6.84273,-10.58196 1.40503,-5.59807 1.34923,-1.40886 -0.11382,8.54558 -1.38522,9.42493 -1.94678,11.03744 -5.89173,16.9179 -9.57106,14.26692 -13.11323,24.47934 -12.13972,35 l 0.60146,6.5 -2.51819,-4.35207 C 138.13319,408.75429 137,405.94824 137,404.91228 Z M 96,385.45419 c 0,-0.30019 1.11843,-2.64676 2.48539,-5.2146 3.27285,-6.14802 1.8794,-7.48858 -3.42067,-3.29085 C 92.82912,378.71937 91,380.58025 91,381.08403 91,381.58781 90.325,382 89.5,382 88.50381,382 88,381.00377 88,379.03393 88,376.27159 88.79769,373.97845 92.88182,365 c 1.8354,-4.03491 8.8666,-11.21609 9.68511,-9.89171 C 103.60035,356.7804 106,356.00572 106,354 c 0,-1.1 -0.39697,-2 -0.88216,-2 -0.88525,0 0.64789,-5.32578 2.25868,-7.84612 0.52476,-0.82108 2.01643,-1.17644 3.8244,-0.91108 2.30161,0.3378 3.31393,-0.0989 4.52946,-1.95406 0.97017,-1.48067 2.3349,-2.27495 3.58918,-2.08891 3.45263,0.5121 3.01623,2.64533 -1.33974,6.54891 -2.3023,2.06319 -5.0814,5.50275 -6.17578,7.64347 -1.70415,3.33347 -1.80523,4.23705 -0.70417,6.29439 1.13694,2.12439 0.91207,3.15969 -1.94447,8.95246 -1.94788,3.95008 -2.99003,7.3066 -2.62536,8.4556 0.39403,1.24145 0.12695,1.90534 -0.76649,1.90534 -0.75417,0 -2.89777,1.575 -4.76355,3.5 -3.11392,3.21275 -5,4.32712 -5,2.95419 z M 86.61385,362.75 c 1.62624,-3.17394 3.12428,-4.70382 4.63615,-4.73469 1.58231,-0.0323 0.63844,2.4917 -1.93709,5.17997 -3.58293,3.73977 -4.74513,3.54804 -2.69906,-0.44528 z M 149.39421,330 c 0.0824,-11.29451 0.39778,-14.5 1.4266,-14.5 1.9539,0 5.47213,11.08411 4.24565,13.37582 -0.53651,1.00248 -1.12946,6.12168 -1.31766,11.376 -0.23129,6.45714 -0.8132,10.121 -1.7955,11.30491 -1.32594,1.59809 -1.50639,1.36564 -2.05909,-2.65257 -0.33319,-2.42229 -0.55819,-10.92916 -0.5,-18.90416 z m -22.79047,13.40976 C 125.87135,341.50117 126.65064,340 128.3738,340 c 0.69068,0 2.02327,-1.60945 2.96132,-3.57656 0.93804,-1.9671 2.25889,-3.38 2.93521,-3.13976 1.75396,0.62302 1.01412,4.94181 -1.15056,6.71632 -1.0064,0.825 -2.10593,2.2875 -2.44341,3.25 -0.76614,2.18508 -3.25792,2.28283 -4.07262,0.15976 z m -39.31803,-1.12405 c 0.91667,-0.91666 1.92381,-1.40952 2.2381,-1.09523 0.31429,0.31428 -0.17857,1.32142 -1.09524,2.23809 -0.91667,0.91667 -1.92381,1.40953 -2.23809,1.09524 -0.31429,-0.31429 0.17857,-1.32143 1.09523,-2.2381 z M 139,336.05902 c 0,-1.35037 1.82294,-2.28649 3.01631,-1.54894 0.55897,0.34546 0.75742,1.04702 0.44098,1.55902 C 141.70662,337.28371 139,337.27582 139,336.059 Z M 120.42369,334.25 c 0.41636,-0.4125 1.72886,-0.75 2.91667,-0.75 1.72386,0 2.16788,-0.60535 2.20048,-3 0.0225,-1.65 0.33086,-3.675 0.68532,-4.5 0.67925,-1.58094 0.7697,-3.21106 0.80455,-14.5 0.0119,-3.85 0.57234,-8.54924 1.24545,-10.44275 1.16344,-3.27284 1.47061,-3.44897 6.22384,-3.56882 7.28492,-0.18369 13.22865,2.87567 14.50368,7.46533 1.52673,5.49566 1.24866,7.21841 -2.46104,15.24757 -4.09208,8.85678 -5.25099,10.007 -9.27228,9.20274 -2.44431,-0.48886 -3.65607,-0.0213 -6.39316,2.46706 -2.54082,2.30988 -4.34718,3.0775 -7.29387,3.09956 -2.15416,0.0161 -3.576,-0.30819 -3.15964,-0.72069 z m -5.15286,0.14583 c 0.33229,-0.33229 1.1948,-0.36781 1.91667,-0.0789 0.79773,0.31922 0.56078,0.55618 -0.60417,0.60416 -1.05416,0.0434 -1.64479,-0.19293 -1.3125,-0.52522 z m 54.83342,-33.23338 c -5.53305,-8.62251 -3.0896,-9.23081 3.06247,-0.76241 3.1672,4.35968 3.48558,5.59996 1.43753,5.59996 -0.76767,0 -2.79267,-2.1769 -4.5,-4.83755 z M 221.91821,299 c -1.3924,0 -1.09812,-4.75142 0.48375,-7.81042 3.14602,-6.08372 17.38349,-9.97737 24.93927,-6.82037 6.35142,2.6538 3.95607,5.63079 -4.53064,5.63079 -5.55548,0 -6.01574,0.20496 -11.39042,5.07229 -3.44891,3.12336 -6.17403,4.8524 -7.09237,4.5 C 223.50754,299.25753 222.42323,299 221.91821,299 Z m -91.41304,-4.99163 c -0.80105,-1.29612 5.6193,-9.2839 6.64095,-8.26225 0.43028,0.43028 0.91092,2.3194 1.0681,4.19807 0.24269,2.90077 -0.0911,3.52435 -2.21422,4.1361 -3.65423,1.05293 -4.80897,1.03782 -5.49483,-0.0719 z m 16.48867,-6.31739 c -0.003,-0.65504 -0.68098,-2.48491 -1.50575,-4.06638 -1.38801,-2.66142 -1.33174,-3.17685 0.75616,-6.92654 2.69906,-4.84729 3.84417,-5.38737 5.56848,-2.62632 1.10775,1.77379 0.99665,2.58617 -0.76112,5.56537 -1.30415,2.21035 -1.83933,4.36051 -1.46077,5.86881 0.3286,1.30923 0.29899,2.86333 -0.0658,3.45356 -0.79244,1.28219 -2.52249,0.41519 -2.5312,-1.2685 z M 225,264.03518 c 0,-1.25707 3.54911,-3.15274 4.36852,-2.33333 1.11625,1.11625 0.67756,2.13946 -1.11852,2.60882 -2.90336,0.75873 -3.25,0.72935 -3.25,-0.27549 z M 202.13545,249.39794 C 201.51095,248.02731 201,244.93239 201,242.52033 c 0,-3.69334 -0.35514,-4.48569 -2.25,-5.01999 -6.13744,-1.73058 -7.96195,-2.99902 -9.91556,-6.89349 C 186.3854,225.72473 183.1511,222 181.36087,222 c -2.56179,0 -3.63451,-4.17718 -3.09482,-12.05116 0.7574,-11.05026 3.45159,-15.50218 7.23214,-11.95054 1.11601,1.04843 3.71046,2.60876 5.76546,3.46739 2.56502,1.07174 3.73635,2.19377 3.73635,3.57911 0,5.13654 6.05539,2.74423 10.96222,-4.33086 1.60739,-2.31767 3.89656,-5.4682 5.08705,-7.00117 1.29374,-1.66594 1.95226,-3.59893 1.63689,-4.80489 -0.38589,-1.47564 0.11509,-2.26201 1.86486,-2.92728 2.60409,-0.99007 4.83942,-5.41315 5.89587,-11.66625 1.32508,-7.84309 7.43091,-13.69973 8.92876,-8.56435 2.00989,6.89089 1.80517,11.23242 -0.74479,15.79478 -3.36374,6.0184 -4.4542,13.52702 -2.23228,15.37105 2.26521,1.87995 2.07522,2.48413 -2.25615,7.17498 -2.81017,3.04339 -4.91445,4.34825 -7.75,4.80574 -3.5399,0.57114 -4.02828,1.03446 -5.39243,5.11573 -0.825,2.46825 -2.22083,5.61272 -3.10185,6.98772 -6.11524,9.54401 -8.51567,16 -5.94904,16 0.52201,0 2.20695,-1.6875 3.74431,-3.75 4.00109,-5.3678 4.4573,-5.49625 7.8481,-2.20976 2.26043,2.1909 4.01019,2.95976 6.73576,2.95976 3.30116,0 3.89745,0.42218 5.76406,4.08103 2.01058,3.94106 2.15704,4.02632 4.27032,2.48587 3.73021,-2.71909 4.69835,-2.86781 6.72559,-1.03319 1.07951,0.97694 1.96275,2.14069 1.96275,2.58609 0,1.35703 -3.70144,2.89291 -9.59944,3.98321 -3.08356,0.57003 -7.34707,1.94367 -9.47448,3.05254 -2.47271,1.28885 -4.87048,1.81303 -6.64704,1.45313 -1.54863,-0.31372 -3.8636,0.0432 -5.22866,0.80619 -3.02171,1.68892 -4.44803,1.20256 -5.91493,-2.01693 z m 58.93713,-40.0328 c -1.13992,-1.44917 -2.08853,-3.36167 -2.10802,-4.25 -0.0195,-0.88833 -0.64589,-2.71747 -1.39201,-4.06476 -1.70679,-3.08199 -1.00807,-5.34869 1.27741,-4.14403 0.90752,0.47834 4.35004,1.41887 7.65004,2.09006 7.21133,1.46672 8.5,2.38447 8.5,6.05345 0,6.33022 -9.92383,9.40503 -13.92742,4.31528 z M 253.2,190.8 c -2.19776,-2.19776 -1.45151,-7.5891 1.3,-9.39196 1.50997,-0.98937 2.5,-2.58254 2.5,-4.02305 0,-2.76574 0.5889,-2.88177 5.06786,-0.9985 l 3.29748,1.38648 -4.43267,2.23453 c -7.08507,3.57162 -7.20329,3.77115 -4.40664,7.43774 1.36068,1.78395 2.47397,3.53857 2.47397,3.89915 0,1.13678 -4.54547,0.71014 -5.8,-0.54439 z M 199.5,186 c 3.30366,-3.44828 5.5,-3.86746 5.5,-1.04969 0,2.28527 -2.49802,3.97637 -5.93709,4.01928 l -2.43709,0.0304 2.87418,-3 z m -10,2 c -0.33992,-0.55 0.28197,-1 1.38197,-1 1.1,0 2.27811,0.45 2.61803,1 0.33992,0.55 -0.28197,1 -1.38197,1 -1.1,0 -2.27811,-0.45 -2.61803,-1 z m 80.77083,-16.60417 c 0.33229,-0.33229 1.1948,-0.36781 1.91667,-0.0789 0.79773,0.31922 0.56078,0.55618 -0.60417,0.60416 -1.05416,0.0434 -1.64479,-0.19293 -1.3125,-0.52522 z M 221.87197,154.06939 C 220.38037,151.97044 209.8067,146 207.58105,146 206.06668,146 200,139.53048 200,137.91554 c 0,-0.55817 0.71818,-2.40367 1.59596,-4.10112 1.55238,-3.00197 1.52337,-3.14414 -1.06239,-5.20595 -1.83165,-1.46051 -2.45019,-2.66218 -1.98897,-3.86409 0.36816,-0.95941 0.95873,-1.7423 1.31239,-1.73975 0.77767,0.006 6.80856,5.57894 7.29651,6.74294 0.19057,0.45462 2.47148,2.05903 5.06868,3.56535 3.98594,2.31178 5.0284,2.54754 6.6863,1.51216 1.62334,-1.01379 2.79935,-0.85298 6.77783,0.92679 2.64753,1.18437 6.27103,2.43434 8.05222,2.7777 3.84753,0.7417 4.87731,2.02346 3.22512,4.01423 -1.54435,1.86083 -4.60819,1.84572 -9.97895,-0.0492 -3.19903,-1.12868 -4.60683,-1.22316 -5.62573,-0.37755 -2.34194,1.94364 -1.49332,4.49565 2.1468,6.45599 3.51794,1.89454 5.16351,4.53502 3.99976,6.41801 -1.02496,1.65842 -4.16512,1.14469 -5.63356,-0.92166 z m -36.85698,-10.0974 c 0.59695,-1.1154 1.49313,-1.77599 1.99151,-1.46797 1.30704,0.80779 0.0393,3.49598 -1.64867,3.49598 -1.12489,0 -1.1977,-0.43068 -0.34284,-2.02801 z m 28.64073,-15.53672 c -1.57339,-1.38379 -2.6053,-3.12428 -2.30944,-3.89528 0.29416,-0.76657 -0.11341,-1.93176 -0.90572,-2.58932 C 209.64825,121.29311 209,120.13521 209,119.37756 c 0,-2.12337 2.78517,-1.6298 3.49926,0.62012 0.34872,1.09872 1.84155,2.28577 3.31739,2.63788 3.73186,0.89037 5.18335,2.24018 5.18335,4.82022 0,4.33635 -3.06299,4.74486 -7.34428,0.97949 z m -10.12304,-9.48815 c 0.36687,-0.59361 1.32999,-0.5558 2.55602,0.10035 1.08202,0.57908 1.7024,1.48152 1.37862,2.00541 -0.36687,0.59361 -1.32999,0.5558 -2.55602,-0.10035 -1.08202,-0.57908 -1.7024,-1.48152 -1.37862,-2.00541 z m -1.74325,-18.49513 c -0.70919,-0.851404 -2.16178,-2.426404 -3.22799,-3.500004 -1.91861,-1.9319 -1.91603,-1.95199 0.25,-1.95199 1.26178,0 2.18856,0.62432 2.18856,1.47432 0,0.81088 1.35,2.17243 3,3.02568 1.65,0.853254 3,1.764804 3,2.025684 0,1.15754 -4.04661,0.3237 -5.21057,-1.07369 z m 13.79325,-3.124564 c -9.08666,-0.90667 -15.45049,-4.82743 -7.83545,-4.82743 3.76961,0 3.78195,-1.90661 0.023,-3.56082 -4.83468,-2.12764 -3.52144,-3.48547 3.01464,-3.11697 5.50223,0.31021 5.63129,0.26154 3.46509,-1.3067 -1.2375,-0.89591 -2.25,-2.274586 -2.25,-3.063736 0,-0.78915 -0.9,-1.99688 -2,-2.68384 -2.80576,-1.75223 -2.48778,-3.61294 0.75,-4.38881 16.26837,-3.89836 16.70949,-4.06284 14.32256,-5.34029 -2.93259,-1.56947 -1.71924,-2.77085 3.96863,-3.9295 2.45239,-0.49955 8.05885,-1.88637 12.45885,-3.08183 6.14217,-1.66879 9.56172,-2.0394 14.72492,-1.59588 7.97385,0.68497 16.60289,3.71117 20.90545,7.33153 2.99462,2.51981 3.02779,2.6342 0.98329,3.39051 -1.16374,0.43049 -2.74487,0.54135 -3.51362,0.24635 -1.93276,-0.74167 -3.02699,1.38062 -1.59898,3.10127 1.00163,1.20689 -0.0828,1.32503 -7.41391,0.80766 C 257.20722,74.71756 257,74.75637 257,76.91721 c 0,1.21785 0.45572,3.06579 1.01271,4.10654 1.38183,2.581976 -0.78217,3.581306 -9.13751,4.219686 -4.96743,0.37953 -7.15647,1.03783 -8.75,2.63136 -1.16886,1.16886 -3.22364,2.1252 -4.56618,2.1252 -3.03192,0 -3.96392,1.37491 -2.62628,3.87433 0.73647,1.3761 0.67795,2.20388 -0.20777,2.93896 -1.36099,1.12953 -7.41708,2.06411 -9.64229,1.48801 -0.77952,-0.20182 -4.15452,-0.64006 -7.5,-0.97387 z"
     id="path3355" />
  <path
     style="display:inline;fill:#e01825;fill-opacity:1"
     d="m 461,486.17547 c 1.925,-0.1785 4.51618,-1.2729 5.75819,-2.43201 l 2.25818,-2.10747 2.88007,2.12932 c 2.58172,1.90875 4.10882,2.11793 14.74181,2.01928 8.6736,-0.0805 12.59577,-0.5244 14.59274,-1.6517 2.47994,-1.39993 3.1694,-1.38451 7.5,0.16768 4.81339,1.72523 23.15294,2.48217 24.61899,1.01611 0.37583,-0.37582 -0.64052,-1.23995 -2.25855,-1.92028 -2.38169,-1.00143 -4.28951,-3.87039 -10.01913,-15.06668 C 512.66151,451.89412 502.09469,437 498.84504,437 c -3.55865,0 -11.7125,-5.91457 -14.30124,-10.37372 -1.31752,-2.26946 -3.13197,-6.99973 -4.03212,-10.51172 -1.00696,-3.92871 -3.31146,-8.83146 -5.98981,-12.74308 -2.56934,-3.75242 -4.79758,-8.42984 -5.43768,-11.41453 -0.59649,-2.78129 -1.80956,-6.45898 -2.69573,-8.17263 -1.07196,-2.07296 -1.44596,-4.58183 -1.11747,-7.49623 C 465.80692,371.5334 464.32588,369 461.01036,369 456.88413,369 456,367.92764 456,362.92295 c 0,-4.27061 -0.37476,-5.14015 -3.07613,-7.13736 -2.50921,-1.85514 -2.97456,-2.78213 -2.525,-5.02993 0.54605,-2.73028 0.50231,-2.75566 -4.74956,-2.75566 -4.41014,0 -5.70798,-0.43462 -7.725,-2.58694 -3.51745,-3.75342 -13.70889,-9.10567 -18.92431,-9.93851 -8.42658,-1.34562 -12.16632,-3.86918 -16.75583,-11.30673 C 396.97474,315.62841 395,310.10345 395,303.89995 c 0,-4.33055 -0.30758,-5.00765 -2.87882,-6.33728 -1.58335,-0.81879 -3.15835,-2.21715 -3.5,-3.10747 -1.19158,-3.10521 -0.6089,-14.68961 1.02084,-20.29575 1.34218,-4.61693 1.43348,-6.42807 0.5,-9.91826 -1.84902,-6.9133 -1.45358,-17.21796 0.80275,-20.91839 2.96943,-4.86994 3.47089,-9.40879 1.53693,-13.91114 -3.08076,-7.17214 -3.44983,-9.57925 -2.49861,-16.29611 0.82025,-5.79197 0.71146,-6.8187 -0.91086,-8.59656 -1.0133,-1.11044 -2.15097,-3.03643 -2.52816,-4.27996 -0.3772,-1.24353 -2.03181,-2.95701 -3.67692,-3.80773 -2.11797,-1.09524 -2.90005,-2.15691 -2.67914,-3.63691 0.33093,-2.21704 1.55558,-3.17122 6.18001,-4.81511 l 2.86803,-1.01952 -3.35625,-2.26178 c -2.53354,-1.70735 -3.51271,-3.22437 -3.99455,-6.18872 -0.35107,-2.15982 -1.14387,-4.09547 -1.76178,-4.30144 C 379.50556,174.00185 379,172.39449 379,170.6359 c 0,-2.63439 -0.52827,-3.39682 -3,-4.3298 -1.82853,-0.69019 -3.00242,-1.84965 -3.0062,-2.96924 -0.0272,-8.06442 -13.00312,-39.44076 -19.50812,-47.17151 -3.14418,-3.73664 -5.42812,-4.25265 -3.10069,-0.70053 0.88826,1.35565 1.61501,2.93065 1.61501,3.5 0,2.10301 -3.71416,0.94235 -6.56291,-2.05088 -4.03614,-4.24085 -5.96089,-5.12073 -11.92687,-5.45226 -4.71828,-0.2622 -5.1443,-0.10488 -5.08019,1.87606 0.0533,1.64847 -0.59823,2.23887 -2.74211,2.48467 -2.39478,0.27457 -2.76739,0.71975 -2.51094,3 0.35405,3.14804 -0.90176,3.1185 -6.17698,-0.14527 -1.925,-1.19099 -4.625,-2.23608 -6,-2.32241 -4.40291,-0.27646 -23.36395,-2.33001 -27.41957,-2.96964 -2.5447,-0.40134 -5.14333,-1.80669 -7.40836,-4.00645 -5.12483,-4.97718 -14.01444,-7.21431 -25.67207,-6.46056 l -9,0.58192 3,2.13308 c 3.06615,2.18012 9.66664,4.20931 24.1971,7.43892 8.55853,1.90226 14.3029,4.29339 14.3029,5.95368 0,1.18533 0.58214,1.19414 -6.56634,-0.0994 -5.76065,-1.0424 -26.50224,-7.18959 -37.22117,-11.03125 -6.39207,-2.29091 -8.40199,-2.37774 -5.71249,-0.24678 1.85372,1.46875 1.40226,1.53833 -6.17237,0.95127 -8.50948,-0.65951 -17.65419,0.87759 -17.02317,2.86136 0.18179,0.57151 1.87516,1.77936 3.76304,2.6841 1.88787,0.90475 7.19989,3.50179 11.80448,5.77121 5.62491,2.77229 8.75108,3.8116 9.52732,3.16737 0.77702,-0.64487 2.61991,-0.0149 5.62802,1.924 6.82022,4.39592 9.67948,7.05592 8.22268,7.64965 -1.8651,0.76014 -1.51147,2.6984 0.75,4.11071 1.1,0.68696 2,2.09272 2,3.12391 0,1.03389 -0.89712,2.1095 -2,2.39791 -1.1,0.28766 -2,1.25807 -2,2.15647 0,2.01728 -3.46755,9.02888 -6.45567,13.05378 -4.72844,6.36903 -4.12389,11.67837 2.1353,18.75288 1.8262,2.06409 3.32037,4.16538 3.32037,4.66956 0,0.50417 1.77578,0.21912 3.94617,-0.63343 3.01645,-1.1849 4.01776,-2.16725 4.25,-4.16956 0.2876,-2.47956 0.566,-2.60253 5.21299,-2.30264 4.22901,0.27292 5.19884,-0.0311 7,-2.19422 3.54674,-4.25953 7.45684,-3.88377 10.06951,0.96767 l 1.93348,3.59025 -2.45607,1.88751 c -3.36023,2.58235 -0.70522,2.47304 4.81272,-0.19815 3.60024,-1.74284 5.58852,-2.03474 10.93593,-1.6055 7.93802,0.63719 10.47944,2.33288 15.48965,10.33506 5.49778,8.78093 6.05462,12.58603 3.03662,20.75073 -2.43245,6.58059 -4.94066,9.84425 -11.12511,14.4759 -1.70824,1.27933 -3.10589,3.19183 -3.10589,4.25 0,2.32236 0.68177,2.37268 5.40561,0.39893 4.61807,-1.92955 16.43659,-1.07111 18.34439,1.33244 2.7302,3.43968 -0.0382,20.58127 -4.35008,26.93518 -1.21682,1.79309 -3.42014,5.87619 -4.89625,9.07354 -2.75954,5.97735 -5.12522,7.78522 -11.92516,9.11327 l -2.92149,0.57058 0.23399,7.10851 c 0.22466,6.82475 0.11196,7.2112 -2.82311,9.6809 -1.68141,1.41481 -4.07204,2.88071 -5.3125,3.25756 -1.24047,0.37684 -3.6054,1.69124 -5.2554,2.92088 -7.28372,5.42812 -9.10356,5.87036 -18.73863,4.55367 -6.97466,-0.95314 -9.51413,-0.95236 -11.82206,0.004 -1.61662,0.66962 -2.93931,1.60253 -2.93931,2.07313 0,0.47059 -1.12725,1.59423 -2.50501,2.49697 C 243.93943,307.9253 242,306.0592 242,300.30837 c 0,-4.03982 -0.20606,-4.41784 -2.25,-4.12755 -1.49062,0.2117 -2.98303,1.77197 -4.42192,4.62301 -2.89745,5.74101 -3.93086,6.87945 -8.87493,9.77686 l -4.20628,2.46505 -8.14712,-2.57367 c -5.83501,-1.84328 -9.71069,-3.84722 -13.6566,-7.06121 -3.03021,-2.46814 -5.90172,-4.24511 -6.38113,-3.94882 -0.47941,0.29629 -0.63134,2.33043 -0.33761,4.52032 0.72049,5.37167 -1.67556,6.39705 -5.77368,2.47081 -1.61143,-1.54385 -3.14299,-2.59388 -3.40347,-2.3334 -0.26048,0.26048 0.17949,2.92768 0.9777,5.9271 0.79822,2.99943 1.45664,6.016 1.46317,6.7035 0.0177,1.86614 -3.15095,1.46927 -5.98813,-0.75 -3.371,-2.63683 -5.01273,-2.49296 -7.73751,0.67805 -1.88845,2.19773 -2.26157,3.6809 -2.08036,8.2695 0.12145,3.0753 -0.042,6.03267 -0.36324,6.57195 -0.32124,0.53927 -0.18984,2.02426 0.29199,3.29996 0.65652,1.7382 1.3789,2.15986 2.88259,1.68261 1.71581,-0.54458 2.02995,-0.1562 2.16814,2.68054 0.42648,8.75415 0.67938,12.52059 0.99493,14.81739 0.2867,2.08687 -0.11099,2.55229 -2.40654,2.81642 -3.01861,0.34733 -3.40268,1.12632 -1.5,3.04234 1.0018,1.00882 0.3232,2.09099 -3.41756,5.45 -2.56715,2.30518 -6.59133,5.54124 -8.94261,7.19124 -4.49919,3.15729 -8.12729,9.30535 -13.50042,22.87741 -3.77103,9.52528 -3.60928,14.28651 0.69392,20.42652 2.88687,4.11875 12.13406,13.1957 13.44356,13.1957 0.22289,0 1.98831,-0.7549 3.92314,-1.67756 2.96164,-1.41231 3.89826,-1.474 5.92347,-0.39014 5.12478,2.7427 5.386,9.05709 0.43964,10.62701 -1.60027,0.5079 -2.67032,0.10034 -3.97865,-1.51538 -1.19637,-1.47745 -3.92335,-2.65656 -8.22585,-3.55677 -8.38978,-1.75537 -11.66971,-3.53491 -15.07352,-8.17821 -1.5357,-2.09492 -3.78565,-4.70895 -4.9999,-5.80895 -2.65631,-2.40637 -6.9371,-13.6056 -6.18124,-16.17112 0.29635,-1.00588 -0.009,-3.12012 -0.67819,-4.69829 C 131.40535,394.63522 132.59589,384 134.20164,384 c 1.22645,0 3.77532,-6.89646 3.15058,-8.5245 -0.79042,-2.0598 -3.08641,-1.84069 -4.29066,0.40947 -1.79397,3.35206 -9.66507,3.85133 -8.39143,0.53227 0.8022,-2.09048 -1.59085,-1.72223 -3.50984,0.54012 -1.86584,2.19969 -7.16029,3.85059 -7.16029,2.2327 0,-0.56471 2.025,-3.3991 4.5,-6.29864 2.475,-2.89953 4.48632,-5.74878 4.46959,-6.33165 -0.0167,-0.58287 -0.48908,-0.27227 -1.04969,0.69023 -0.5606,0.9625 -1.61956,1.75 -2.35323,1.75 -1.315,0 -4.21153,2.97331 -12.06667,12.3865 -2.2,2.63637 -5.17911,5.40928 -6.62024,6.16203 -1.44114,0.75275 -5.67396,4.98727 -9.40627,9.41005 C 87.74118,401.38136 83.98732,405 83.13159,405 c -0.85574,0 -3.48542,1.89369 -5.84374,4.20821 -4.40632,4.32447 -5.57165,3.70352 -3.12541,-1.66538 1.55091,-3.40388 0.35966,-4.34844 -2.41638,-1.91599 -1.23533,1.08244 -3.1082,2.62171 -4.16193,3.42061 -1.79887,1.36384 -1.87405,1.2846 -1.23095,-1.29745 1.02866,-4.13011 -0.75612,-3.33131 -4.76801,2.13398 L 58,414.76795 l 0,10.9249 c 0,8.05776 0.38531,11.43432 1.4682,12.86602 2.45473,3.24545 1.73629,6.34533 -2.84503,12.27558 -2.93993,3.80557 -5.03929,7.96362 -6.39471,12.66555 -2.55038,8.84719 -4.59979,20.09016 -3.87568,21.26179 0.31477,0.50931 16.00733,0.78212 36.35055,0.63195 19.68817,-0.14534 45.84217,-0.29339 58.11999,-0.329 20.64613,-0.0599 22.29817,-0.19536 21.98852,-1.80326 -0.18414,-0.95618 -1.22964,-1.88253 -2.32332,-2.05855 -1.09369,-0.17601 -2.66352,-0.58784 -3.48852,-0.91517 -0.825,-0.32732 -2.21861,-0.50936 -3.09691,-0.40452 -0.8783,0.10483 -2.1709,-0.50101 -2.87245,-1.34632 C 150.3291,477.69162 148.71177,477 147.43657,477 c -1.27519,0 -2.5845,-0.43035 -2.90958,-0.95633 -0.32507,-0.52598 -1.26839,-0.6964 -2.09626,-0.37871 -0.82787,0.31768 -2.32338,-0.16282 -3.32336,-1.06779 -1.04687,-0.9474 -2.53618,-1.36985 -3.5108,-0.99586 -1.05189,0.40365 -2.18756,-0.0273 -3.00001,-1.13836 -0.73477,-1.00487 -1.97426,-1.53199 -2.8301,-1.20357 -0.83751,0.32138 -2.02935,0.0777 -2.64853,-0.54145 -0.61917,-0.61917 -3.48651,-1.26829 -6.37185,-1.44247 -2.88534,-0.17418 -7.04608,-0.55548 -9.24608,-0.84734 -2.2,-0.29185 -4.85924,-0.53014 -5.90943,-0.52952 -1.05018,6.2e-4 -2.66875,-0.40525 -3.5968,-0.90194 -0.96864,-0.51839 -2.0721,-0.52916 -2.59057,-0.0253 -0.50577,0.49153 -2.86862,0.51259 -5.36981,0.0479 -5.09139,-0.946 -11.85916,-0.50719 -17.16304,1.11281 -2.93181,0.89548 -4.61409,0.78165 -8.75,-0.59208 C 65.30416,466.6046 63,465.73497 63,465.60748 c 0,-1.71226 4.63916,-8.98015 6.51785,-10.21111 C 70.88303,454.50184 72,453.1037 72,452.28936 c 0,-0.81434 0.92846,-2.78451 2.06323,-4.37817 1.13478,-1.59365 1.75812,-3.39123 1.3852,-3.99463 C 74.68767,442.68562 81.73105,435 83.61989,435 c 0.6677,0 4.24951,-1.61037 7.95957,-3.57859 l 6.74556,-3.5786 3.77859,1.70391 C 106.85884,431.69103 107.98952,434 104.28434,434 100.3746,434 93,437.85718 93,439.90212 c 0,2.1731 -4.56438,6.58325 -8.5,8.21278 -2.7496,1.13847 -2.81651,1.27422 -0.80158,1.62641 1.20912,0.21135 3.00912,-0.0312 4,-0.53908 2.46759,-1.26469 9.33348,-0.28268 9.99026,1.42888 0.29429,0.7669 0.0232,2.01115 -0.60247,2.76501 -0.92021,1.10879 0.15694,1.90831 5.63813,4.1849 5.91774,2.45791 8.10515,2.82088 17.27566,2.86661 9.99414,0.0498 10.78906,-0.1041 16.5,-3.19549 6.27035,-3.39419 8.93505,-3.97527 10.03894,-2.18913 1.48641,2.40507 -2.64243,4.7444 -9.60839,5.44396 -8.29409,0.83295 -9.03315,2.48701 -2.18055,4.88018 6.65574,2.32442 23.02102,10.76069 24.95226,12.86285 0.88424,0.9625 2.42214,1.75 3.41754,1.75 0.99541,0 2.2915,0.9 2.8802,2 0.5887,1.1 1.98412,2 3.10093,2 1.1168,0 2.85819,0.44294 3.86974,0.9843 1.67987,0.89904 278.81917,2.04517 288.02933,1.19117 z M 148.81667,462.78333 c 0.71756,-0.71756 1.18333,-0.7766 1.18333,-0.15 0,0.56834 -0.3,1.33334 -0.66667,1.7 -0.36666,0.36667 -0.89916,0.43417 -1.18333,0.15 -0.28417,-0.28416 0.0158,-1.04916 0.66667,-1.7 z M 156,452.5 c 0,-0.825 0.45,-1.5 1,-1.5 0.55,0 1,0.675 1,1.5 0,0.825 -0.45,1.5 -1,1.5 -0.55,0 -1,-0.675 -1,-1.5 z m 21.54692,-24.60865 c -2.17419,-0.60363 -5.507,-2.65143 -7.40625,-4.55068 -1.89924,-1.89924 -4.75872,-3.71428 -6.35439,-4.03341 -2.42533,-0.48507 -3.5479,-1.86644 -6.84375,-8.42156 C 154.77414,406.57298 153,402.58441 153,402.0222 c 0,-1.97238 1.52121,-0.9647 3.75919,2.49018 2.62869,4.05803 3.76205,4.3603 4.6405,1.23762 0.62326,-2.21554 0.66675,-2.20406 2.83974,0.75 5.64771,7.67773 18.21265,17.5 22.38652,17.5 2.19141,0 1.59667,1.36349 -1.37774,3.15857 -3.4409,2.07662 -3.00894,2.03552 -7.70129,0.73278 z M 189.52381,417.75 c 0.41639,-1.2375 0.8973,-4.5 1.06868,-7.25 0.53676,-8.61271 1.47992,-11.91355 4.43235,-15.51215 2.78148,-3.39023 2.90246,-3.43246 4.32251,-1.50869 1.43932,1.94986 1.49167,1.94246 3.53648,-0.5 1.76515,-2.10842 2.22583,-2.25484 3.08054,-0.97916 0.55275,0.825 1.0119,4.0156 1.02032,7.09023 0.0119,4.34655 -0.64808,6.79377 -2.96657,11 -1.64004,2.97537 -2.99004,4.93328 -3,4.3509 -0.038,-2.21934 -2.58504,-4.54455 -4.26993,-3.898 -1.76757,0.67828 -4.74819,5.76956 -4.74819,8.11051 0,0.7405 -0.72748,1.34636 -1.61663,1.34636 -1.23416,0 -1.43752,-0.53232 -0.85956,-2.25 z M 107,401 c 1.03564,-1.93512 4,-2.82443 4,-1.2 0,1.25924 -2.26535,3.2 -3.73518,3.2 -1.02531,0 -1.08677,-0.46417 -0.26482,-2 z m 46,-5.93657 c 0,-1.0002 0.675,-2.37874 1.5,-3.06343 1.24999,-1.0374 1.5,-0.90477 1.5,0.79577 0,2.93778 -1.06386,5.2828 -2.10478,4.63947 C 153.40285,397.13094 153,396.06362 153,395.06343 Z m -25.74986,-1.6469 c 0.95295,-0.95296 2.86349,0.5906 2.1533,1.7397 -0.42212,0.683 -0.98146,0.66575 -1.69964,-0.0524 -0.58876,-0.58876 -0.79291,-1.34803 -0.45366,-1.68727 z M 455,390 c 0,-0.55 0.675,-1 1.5,-1 0.825,0 1.5,0.45 1.5,1 0,0.55 -0.675,1 -1.5,1 -0.825,0 -1.5,-0.45 -1.5,-1 z m -328.40895,-0.85268 c -0.69213,-1.11989 2.04516,-4.84444 2.9185,-3.97111 0.86979,0.8698 -0.37442,4.82379 -1.51792,4.82379 -0.48048,0 -1.11074,-0.38371 -1.40058,-0.85268 z M 186,377.89301 c 0,-1.63288 -0.39378,-1.93399 -1.75,-1.33816 -3.24463,1.42547 -9.25,1.73038 -9.25,0.46965 0,-0.65206 1.51756,-3.51183 3.37235,-6.35503 1.85479,-2.84321 3.65087,-6.3572 3.99129,-7.80888 0.39585,-1.68802 1.49929,-2.86036 3.06126,-3.25239 1.34327,-0.33714 3.41611,-1.98055 4.60631,-3.65203 1.72756,-2.42614 2.44683,-2.80432 3.56639,-1.87517 0.77132,0.64014 1.4024,1.78819 1.4024,2.55123 0,0.76304 0.9,2.15795 2,3.0998 1.35508,1.16025 2,2.94994 2,5.55007 0,3.248 -0.7905,4.67345 -5.14506,9.27776 C 188.40252,380.325 186,381.34448 186,377.89301 Z m -9.84414,-14.57898 C 175.22825,361.65647 176.55914,357 177.96052,357 c 1.2127,0 3.03948,2.40407 3.03948,4 0,1.66067 -1.8424,4 -3.15031,4 -0.41267,0 -1.17489,-0.75869 -1.69383,-1.68597 z m 245.90832,-4.85942 c -2.4397,-1.93929 -5.02398,-3.30028 -5.74285,-3.02442 -1.73405,0.66542 -4.94217,-2.84158 -7.91001,-8.64695 -1.32623,-2.59421 -2.41132,-4.95671 -2.41132,-5.25 0,-0.89249 7.84435,-0.5941 8.40922,0.31988 0.28999,0.46922 3.01655,1.6361 6.05902,2.59307 3.12432,0.98272 5.53176,2.32851 5.53176,3.09232 0,0.7438 1.20427,1.93941 2.67616,2.65692 3.60734,1.7585 3.9522,3.43005 0.86739,4.20428 -1.39895,0.35112 -2.54355,1.30482 -2.54355,2.11934 0,1.7452 3.10717,1.97378 4.73278,0.34817 0.63466,-0.63466 1.93188,-0.81048 2.95,-0.39984 1.65931,0.66925 1.6217,0.80833 -0.43278,1.60056 -1.2375,0.47718 -2.25,1.55711 -2.25,2.39984 0,2.7866 -5.23087,1.72674 -9.93582,-2.01317 z M 336.19054,247.75 c 0.59758,-1.7875 1.90269,-4.15614 2.90026,-5.26365 0.99756,-1.1075 2.52444,-3.71458 3.39307,-5.79351 0.86863,-2.07892 2.21699,-4.02455 2.99635,-4.32362 0.77936,-0.29907 2.15131,-2.75449 3.04877,-5.45649 1.19932,-3.61082 2.14046,-4.91273 3.55138,-4.91273 2.71402,0 2.46915,3.00966 -1.00046,12.29689 -3.29844,8.82901 -4.04528,9.92169 -9.47995,13.86983 -5.34145,3.88043 -6.80822,3.76743 -5.40942,-0.41672 z m 39.99958,-66.67965 c -0.26846,-0.80538 0.40953,-1.12176 1.93828,-0.9045 1.29314,0.18378 2.50079,1.11918 2.68365,2.07866 0.27218,1.4281 -0.0794,1.59215 -1.93828,0.9045 -1.24893,-0.46201 -2.45657,-1.39741 -2.68365,-2.07866 z M 542,485 c 0,-0.55 -0.92656,-1 -2.05902,-1 -1.13246,0 -1.7809,0.45 -1.44098,1 0.33992,0.55 1.26647,1 2.05902,1 C 541.35156,486 542,485.55 542,485 Z M 76.95526,391.75 c 5.11515,-6.94932 5.18988,-11.82608 0.19261,-12.56955 C 74.48249,378.78391 74.44536,377.35738 77,373.5 c 1.09275,-1.65 1.98979,-3.77404 1.99341,-4.72009 0.004,-0.94605 1.40101,-4.46413 3.1053,-7.81796 3.14647,-6.19184 3.18312,-8.3803 0.10333,-6.16932 -5.56576,3.99564 -8.58606,4.02142 -5.80404,0.0495 0.8811,-1.25794 1.602,-2.69214 1.602,-3.18711 0,-1.72654 -2.75342,1.40602 -6.33227,7.20422 -5.72369,9.27311 -8.14376,28.31212 -4.49855,35.39073 0.54206,1.05261 2.04822,1.75 3.77949,1.75 2.22887,0 3.58415,-0.95894 6.00659,-4.25 z m 59.85567,-30.45141 c 1.99044,-2.24399 2.11506,-2.80117 0.89855,-4.01768 -1.21651,-1.21651 -1.58557,-0.99426 -2.6612,1.60254 -1.78162,4.3012 -0.93692,5.45859 1.76265,2.41514 z M 101.75,339.29427 c 1.2375,-0.23836 2.25,-0.85207 2.25,-1.36382 0,-1.39879 -2.36781,-1.11949 -4.55887,0.53775 -1.97417,1.49318 -1.6874,1.59578 2.30887,0.82607 z M 166.768,335 c 0,-1.925 -0.2058,-2.7125 -0.45733,-1.75 -0.25152,0.9625 -0.25152,2.5375 0,3.5 0.25153,0.9625 0.45733,0.175 0.45733,-1.75 z M 107.6202,319.7082 C 111.73038,315.51023 114.06398,311 112.12583,311 111.15828,311 102,322.23689 102,323.42404 c 0,1.38282 1.78117,0.20519 5.6202,-3.71584 z m 85.58268,-26.24442 c 0.31326,-0.31325 -0.0843,-2.68325 -0.88352,-5.26666 -2.96138,-9.57276 -10.57742,-38.92443 -11.85728,-45.69712 -0.72755,-3.85 -2.08413,-9.925 -3.01462,-13.5 -1.40746,-5.40753 -1.57462,-9.02108 -0.9946,-21.5 0.38345,-8.25 1.02083,-16.575 1.41639,-18.5 0.68093,-3.31375 0.95631,-3.5138 5.17498,-3.75931 2.45067,-0.14261 6.50707,-0.24686 9.01422,-0.23165 3.59968,0.0218 5.05607,-0.50204 6.92432,-2.4907 2.8471,-3.0306 5.50524,-3.17537 9.51723,-0.51834 1.65,1.09275 3.8188,1.98979 4.81955,1.99341 3.01716,0.0109 1.59159,-4.14929 -2.31955,-6.76913 C 206.79564,174.40803 206.10123,173 208.91667,173 c 3.25721,0 2.62141,-4.08614 -1.21428,-7.80383 C 205.88871,163.43828 204.0145,162 203.5375,162 c -1.4625,0 -16.83671,6.29405 -20.29424,8.30826 -1.92571,1.12184 -3.49246,2.97917 -3.83352,4.54449 -1.10242,5.05974 -1.39753,5.55946 -2.58303,4.37396 -1.27478,-1.27478 -1.28749,-1.83709 -0.47694,-21.09686 0.34466,-8.1895 1.08484,-14.94859 1.72093,-15.71503 1.18392,-1.42655 0.72326,-19.4009 -0.58066,-22.65639 -0.99445,-2.48285 2.2287,-3.52533 3.88717,-1.25724 1.05576,1.44384 1.66299,1.54766 3.45196,0.59024 1.63764,-0.87644 2.17083,-2.0865 2.17083,-4.92661 0,-2.07065 0.5325,-4.29732 1.18333,-4.94815 1.72626,-1.72626 0.58157,-2.31965 -3.06706,-1.58992 -2.10257,0.42051 -3.69137,1.58469 -4.624,3.3882 -1.53741,2.97302 -6.94959,4.58917 -9.22954,2.75607 -1.82112,-1.4642 -4.26273,-0.15184 -4.26273,2.29121 0,1.28401 0.79153,2.332 2,2.64802 2.40392,0.62864 2.76349,5.3834 0.57279,7.57411 -1.04634,1.04633 -1.21253,2.3791 -0.62277,4.99405 0.78129,3.46411 0.73783,3.53649 -1.50901,2.51276 -3.96737,-1.80766 -5.78427,-0.33928 -5.07426,4.10091 C 163.11992,142.60213 160.25204,147 156.42742,147 154.32459,147 154,147.46331 154,150.46482 c 0,2.35852 -0.59585,3.7837 -1.86615,4.46355 -1.48538,0.79494 -1.96274,2.50377 -2.33952,8.3747 -0.38015,5.92353 -0.91622,7.81882 -2.72237,9.62497 -1.23696,1.23696 -3.04382,4.02428 -4.01526,6.19405 -0.97143,2.16977 -2.50167,4.49244 -3.40052,5.16147 C 137.746,185.70537 136,193.99198 136,201.63604 c 0,7.17849 2.82694,23.20354 4.64709,26.34296 0.80388,1.38655 2.55475,4.321 3.89081,6.521 3.61943,5.95987 3.33413,14.27462 -0.91503,26.66734 -1.82307,5.31703 -4.05903,10.41167 -4.96878,11.32142 -2.19416,2.19417 -2.0912,3.51124 0.27448,3.51124 2.28242,0 5.07143,-2.53595 5.07143,-4.61127 0,-1.7811 3.60595,-9.03188 6.0462,-12.15759 0.97422,-1.24787 2.07481,-4.47557 2.44576,-7.17265 0.75211,-5.46849 2.6098,-8.73167 4.35634,-7.65225 0.63343,0.39149 1.1517,1.78368 1.1517,3.09376 0,1.31008 0.40415,2.63174 0.89811,2.93703 1.8486,1.14249 2.30492,13.83575 0.66288,18.4387 -2.23216,6.25713 -2.02141,8.99872 0.77341,10.06131 1.28392,0.48814 4.40039,3.28553 6.9255,6.21641 2.5251,2.93089 4.77734,5.10786 5.00496,4.83772 0.22763,-0.27015 -0.0381,-4.44439 -0.59057,-9.2761 -0.70871,-6.19849 -0.68707,-9.10229 0.0735,-9.86287 1.46599,-1.46599 2.86746,-0.42192 5.91604,4.40734 1.42054,2.25028 5.06126,7.04995 8.09049,10.66594 7.22229,8.62124 6.79652,8.19034 7.44855,7.5383 z M 133.97994,281.52417 C 134.76869,280.57378 134.84456,280 134.18146,280 c -1.20855,0 -2.61759,1.8972 -1.9241,2.5907 0.2517,0.2517 1.02686,-0.22824 1.72258,-1.06653 z m 126.69069,-1.3456 c 1.86128,-1.85016 1.65804,-3.57116 -0.67063,-5.67857 -1.1,-0.99549 -2,-2.79549 -2,-4 0,-1.20451 -0.9,-3.00451 -2,-4 -2.7967,-2.53098 -2.57188,-3.00988 2.28343,-4.86414 5.67145,-2.16595 8.95904,-2.06297 13.85336,0.43392 8.04649,4.10502 9.65297,-1.24355 2.38555,-7.94242 -4.32619,-3.98775 -5.63982,-4.53219 -10.1056,-4.18834 -1.14579,0.0882 -5.41174,-0.76196 -9.4799,-1.88931 C 246.16076,245.61774 239.80767,245.45093 234,247.5 c -2.3383,0.825 -5.51915,1.5 -7.06857,1.5 -4.10409,0 -8.72849,3.11542 -14.68143,9.89075 -3.41803,3.89023 -5.25,6.87102 -5.25,8.54227 0,3.32963 0.80652,3.23849 6.1062,-0.69006 5.30742,-3.93428 9.60157,-5.67473 16.8938,-6.84718 8.64958,-1.39069 20.2091,0.51624 17.49164,2.88552 -1.80033,1.56966 -19.92184,9.04189 -23.5565,9.7133 -6.40322,1.18283 -6.81285,2.00462 -2.97368,5.96564 l 3.43835,3.54747 17.47072,-0.25385 c 12.86234,-0.1869 17.82138,-0.60242 18.8001,-1.57529 z m 20.72601,-37.7698 c 0.33583,-0.87518 -0.0775,-3.04127 -0.91847,-4.81352 C 278.72863,233.90836 255.93189,210 254.16596,210 253.5083,210 253,211.47151 253,213.37545 c 0,2.68854 1.43642,5.15642 7.05859,12.1272 7.8959,9.78991 16.9457,18.49735 19.22463,18.49735 0.82654,0 1.77758,-0.71605 2.11342,-1.59123 z M 233.5,234.72882 c 1.65,-0.55145 3.14568,-1.1242 3.32374,-1.27279 0.57181,-0.4772 -2.63822,-6.05718 -4.2578,-7.40131 -4.42972,-3.67634 0.77787,-4.12532 6.43406,-0.55472 6.18491,3.90437 12,2.85041 12,-2.17494 0,-2.766 -0.89927,-3.71452 -7.94578,-8.38093 -5.22146,-3.45781 -8.79808,-3.72005 -12.37393,-0.90728 -2.20663,1.73573 -2.89181,1.848 -4.63486,0.75945 -1.67895,-1.04853 -2.44856,-1.02432 -4.29543,0.13509 -1.2375,0.77686 -3.6,1.69106 -5.25,2.03154 -2.77869,0.57339 -3,0.93996 -3,4.96908 0,5.62425 1.90812,7.00861 6.50169,4.71703 1.81807,-0.90697 3.47744,-1.64904 3.68749,-1.64904 0.21004,0 1.20442,1.91887 2.20973,4.26416 2.44681,5.70818 3.85127,6.71789 7.60109,5.46466 z m 56.5,-2.29837 c 0,-1.04234 -0.72946,-1.46221 -2.17167,-1.25 C 284.62683,231.65153 284.28395,234 287.41667,234 289.09717,234 290,233.45147 290,232.43045 Z M 203,154.53518 C 203,152.8163 199.98143,151 197.12476,151 c -3.53544,0 -3.38183,1.99464 0.27115,3.52096 4.44558,1.85748 5.60409,1.86042 5.60409,0.0142 z m 109,-44.29277 c 0,-2.69053 -8.13012,-9.44563 -9.59965,-7.97609 -0.68134,0.68134 3.4078,5.46088 6.64288,7.76446 2.82699,2.013 2.95677,2.02229 2.95677,0.21163 z M 198.7823,107.8455 c -0.24642,-0.74002 -1.25007,-1.50098 -2.23033,-1.691 -1.14002,-0.221 -1.62085,0.13937 -1.33427,1 0.24642,0.74002 1.25007,1.50098 2.23033,1.691 1.14002,0.221 1.62085,-0.13937 1.33427,-1 z m 99.96817,-9.095504 c -0.22891,-0.6875 -1.26459,-1.4144 -2.3015,-1.61534 -1.6311,-0.31608 -1.70455,-0.14754 -0.54469,1.25 1.5862,1.911264 3.44015,2.149234 2.84619,0.36534 z m -0.66823,-14.15007 C 296.15955,82.28209 293,80.62792 293,81.93914 c 0,0.555216 1.4625,1.765586 3.25,2.689706 3.06226,1.58315 3.1681,1.58148 1.83224,-0.0289 z M 196.53618,81.94145 c 0.37529,-0.60722 1.89271,-0.78652 3.55902,-0.42054 3.3806,0.7425 3.94616,-0.89322 0.87679,-2.5359 -2.75414,-1.47397 -1.86266,-2.50661 5.27417,-6.10927 3.35525,-1.69373 6.68926,-3.6683 7.4089,-4.38794 0.71964,-0.71965 3.45416,-2.06796 6.07669,-2.99626 8.89183,-3.14742 9.13646,-3.35082 4.11782,-3.42386 C 213.79472,61.92135 194,74.04204 194,80.34516 c 0,2.689686 1.33941,3.532716 2.53618,1.59629 z"
     id="path3353" />
  <path
     style="display:inline;fill:#00324d;fill-opacity:1"
     d="m 528,484.51026 c 0,-0.38584 -0.84468,-1.89599 -1.87707,-3.35589 -1.03239,-1.4599 -4.37791,-7.60437 -7.43448,-13.65437 -5.69306,-11.26849 -15.1649,-25.49465 -17.48924,-26.26783 -1.03102,-0.34296 -1.16148,1.19535 -0.62905,7.41757 0.51599,6.03017 1.38939,9.17727 3.76708,13.57383 3.05098,5.64153 3.07307,5.78486 1.5414,10 -1.08786,2.99375 -2.20253,4.37228 -3.7163,4.59598 -4.00155,0.59135 -2.20707,2.89575 4.08766,5.24921 6.02211,2.25153 21.75,4.01703 21.75,2.4415 z m -63.68699,-2.27782 c 2.36073,-2.36073 2.9172,-2.49735 6.14147,-1.50779 3.74359,1.14894 4.59178,0.38856 1.98233,-1.77709 -1.41311,-1.17277 -1.40439,-1.3862 0.0908,-2.22295 1.46595,-0.82039 1.34211,-1.25115 -1.08926,-3.78896 -2.22919,-2.32677 -2.51552,-3.13774 -1.52798,-4.32766 0.95895,-1.15546 0.92258,-2.05951 -0.17243,-4.28616 -0.92214,-1.87512 -1.15401,-4.14 -0.69114,-6.75088 0.38311,-2.16097 0.49925,-5.98597 0.25808,-8.5 -0.24116,-2.51402 -0.40801,-5.64934 -0.37076,-6.96738 0.0372,-1.31804 -0.42659,-2.99203 -1.03074,-3.71999 -0.60415,-0.72795 -1.24573,-2.57456 -1.42574,-4.10357 -0.18001,-1.529 -0.60835,-4.13001 -0.95188,-5.78001 -0.34353,-1.65 -0.75014,-3.9 -0.90358,-5 -0.15344,-1.1 -0.54702,-2.675 -0.87463,-3.5 -1.37937,-3.47365 -2.61489,-8.85114 -3.21662,-14 -1.04932,-8.97895 -1.47878,-10 -4.20606,-10 -1.35207,0 -3.93326,-1.125 -5.73598,-2.5 -3.7957,-2.89512 -4.84456,-3.03381 -7.88375,-1.04246 -2.97489,1.94922 -5.74825,0.50426 -3.72085,-1.93861 1.17028,-1.4101 1.00325,-1.98594 -1.22133,-4.21051 l -2.57701,-2.57702 -2.99735,2.1343 c -4.98681,3.55093 -8.3939,2.44004 -4.1886,-1.3657 4.58164,-4.14633 0.4811,-11.5 -6.41262,-11.5 -3.49637,0 -5.92401,2.22077 -6.966,6.37243 -0.37997,1.51391 -1.70099,3.08754 -3.00957,3.58506 -4.24916,1.61553 -6.60104,10.35482 -8.24046,30.62047 -0.47488,5.87026 -0.27918,7.37135 1.14689,8.79743 1.55554,1.55553 1.88249,1.57193 3.42936,0.17204 2.37345,-2.14795 3.24646,-1.93439 2.87195,0.70257 -0.20684,1.45642 -0.91005,2.1525 -1.99377,1.97356 -2.17403,-0.35895 -3.19091,2.71461 -3.39993,10.27644 -0.0912,3.3 -0.73969,8.39138 -1.44105,11.31418 -1.1724,4.88579 -1.10227,5.66045 0.87,9.60953 1.17986,2.36245 2.1452,4.80856 2.1452,5.43582 0,0.62726 0.45,1.14047 1,1.14047 0.55,0 1,-0.4875 1,-1.08333 0,-0.59584 0.5625,-0.89594 1.25,-0.66691 0.79195,0.26384 1.27552,2.49067 1.31964,6.0769 0.0555,4.50886 0.54869,6.17039 2.42431,8.1669 1.29507,1.37854 1.91632,2.50644 1.38055,2.50644 -0.53577,0 -5.54604,-4.3875 -11.13394,-9.75 -6.98918,-6.70725 -11.1495,-11.62246 -13.3311,-15.75 -1.74421,-3.3 -3.54912,-6.24337 -4.01093,-6.54082 -1.38449,-0.89176 -3.86557,-8.88149 -3.2534,-10.47679 C 383.958,434.66707 385.05297,434 386.0784,434 c 1.25585,0 2.13355,-1.03863 2.68895,-3.18198 1.18052,-4.55576 2.73934,-4.50818 4.59933,0.14039 1.48792,3.71866 2.35417,4.46797 4.38332,3.79159 1.05533,-0.35178 0.38383,-15.24604 -0.95805,-21.25 -0.68948,-3.08491 -2.06857,-5.82498 -3.6006,-7.15388 -3.06689,-2.66027 -5.30247,-8.26233 -5.92454,-14.84612 -0.54339,-5.75115 -1.80139,-7.78249 -4.32384,-6.9819 -2.35063,0.74606 -3.17239,-0.78448 -2.03184,-3.78435 0.69653,-1.83202 0.47284,-3.12401 -0.90438,-5.22346 -1.55396,-2.36887 -1.74885,-4.16282 -1.29278,-11.89983 0.42017,-7.12803 0.17853,-9.9645 -1.11049,-13.03528 l -1.64752,-3.92483 -3.27559,3.17483 c -3.9796,3.85718 -4.94459,3.92567 -7.60779,0.53996 -2.49546,-3.17246 -2.68995,-8.75856 -0.55049,-15.81152 0.82525,-2.7205 1.785,-8.008 2.13278,-11.75 0.55056,-5.92385 0.4179,-6.80362 -1.02597,-6.80362 -2.01531,0 -5.22561,5.03674 -6.0662,9.51747 -0.89449,4.76804 -3.10082,6.30486 -5.5758,3.8838 -1.06899,-1.0457 -3.55999,-3.47627 -5.53555,-5.40127 l -3.59193,-3.5 0.61711,-7.5 c 0.61359,-7.45716 2.52648,-15.63181 5.06599,-21.64928 1.97435,-4.6783 2.87151,-10.35072 1.6371,-10.35072 -0.57363,0 -3.17326,2.25 -5.77696,5 -2.6037,2.75 -5.12059,5 -5.59308,5 -0.4725,0 -1.29525,-1.1472 -1.82834,-2.54934 -0.72543,-1.90803 -0.46765,-4.03832 1.02475,-8.46845 2.60554,-7.73441 2.62276,-12.00503 0.0511,-12.67752 -1.09345,-0.28595 -2.20527,-1.70272 -2.54304,-3.24057 -0.33008,-1.50287 -2.33679,-5.04374 -4.45934,-7.86859 -3.28565,-4.37278 -4.04283,-4.91481 -5.09487,-3.64717 -0.67963,0.8189 -1.36668,4.74303 -1.52677,8.72028 -0.43538,10.81655 -3.20179,17.47771 -10.94649,26.35775 -6.04877,6.93549 -6.45358,7.67728 -4.83532,8.86058 1.57983,1.1552 1.64609,1.90961 0.6282,7.15222 -3.38863,17.45301 -8.26935,30.28426 -13.51423,35.52844 -8.08662,8.08553 -30.69629,9.37324 -39.06169,2.22472 -4.48141,-3.82953 -12.49442,-8.65379 -16.09599,-9.69064 -2.6818,-0.77207 -8.60758,-5.72343 -8.60758,-7.19217 0,-0.35438 0.82946,-0.38105 1.84325,-0.0593 1.01378,0.32176 3.37628,-0.0803 5.25,-0.89347 l 3.40675,-1.4785 -4.29966,-0.0391 c -2.36481,-0.0215 -5.56083,-0.69131 -7.10225,-1.48842 -1.54143,-0.7971 -7.21406,-2.35048 -12.60586,-3.45195 -10.06865,-2.05689 -14.02111,-1.64057 -12.87131,1.35575 0.30643,0.79854 -0.36877,1.99557 -1.53724,2.72529 -1.14602,0.71571 -2.08368,2.00304 -2.08368,2.86074 0,0.8577 -0.50533,2.06478 -1.12296,2.68241 -0.8306,0.8306 -0.56329,1.90892 1.02679,4.14199 1.18236,1.66047 2.85173,4.50764 3.70971,6.32704 0.85798,1.81941 2.38921,4.82173 3.40274,6.67183 1.01352,1.8501 2.37974,6.36852 3.03603,10.04093 1.13442,6.34782 1.07058,6.92167 -1.29444,11.63618 -1.36824,2.72749 -3.08215,7.31602 -3.80868,10.19675 -1.26768,5.02638 -1.22576,5.33902 1.03923,7.75 1.29812,1.38177 3.18177,2.51232 4.18589,2.51232 2.15572,0 2.3982,2.28463 0.44933,4.2335 -0.757,0.757 -1.60379,3.15165 -1.88176,5.32143 -1.09642,8.55849 -3.17641,17.0666 -4.75378,19.44507 -0.91189,1.375 -2.64912,4.58943 -3.86053,7.14317 -1.21869,2.56912 -3.07693,4.87183 -4.16002,5.15506 -2.40082,0.62783 -3.70779,3.62624 -2.03206,4.6619 0.73864,0.4565 -0.42537,1.02249 -2.92479,1.42217 -3.93225,0.62879 -6.75025,2.67644 -15.40285,11.19221 -1.15932,1.14098 -2.90724,2.36893 -3.88428,2.72876 -1.94815,0.71749 -6.07023,9.32681 -5.16607,10.78977 0.33411,0.5406 1.32732,0.50379 2.43745,-0.0903 5.69486,-3.0478 6.68829,0.55881 1.2013,4.3613 -3.70692,2.5689 -8.19625,3.52798 -8.19625,1.75101 0,-1.38038 -5.28911,-4.51263 -7.3619,-4.35976 -2.35188,0.17345 -5.42078,2.92381 -7.28504,6.52891 -1.43728,2.77939 -1.42631,2.7959 3.22487,4.85334 2.56688,1.13545 7.3817,3.81902 10.6996,5.96348 3.3179,2.14446 6.48984,3.89902 7.04877,3.89902 0.55892,0 1.80172,0.71087 2.76177,1.5797 1.40301,1.26971 2.17146,1.35177 3.91593,0.41816 1.35897,-0.7273 3.98532,-0.91193 7.02505,-0.49386 7.24147,0.99595 12.56238,-1.38579 6.49687,-2.90814 -1.36074,-0.34152 -4.10329,-1.72656 -6.09454,-3.07787 -1.99126,-1.3513 -5.15292,-3.01105 -7.02592,-3.68834 -2.5294,-0.91464 -3.40546,-1.82288 -3.40546,-3.53054 0,-2.3575 1.39717,-3.08353 2.5,-1.29911 0.33992,0.55 2.05398,1.00287 3.80902,1.00638 5.12151,0.0102 15.92828,6.02258 17.62282,9.80445 0.97191,2.1691 2.57802,3.59608 5,4.44238 2.76722,0.96692 31.98797,1.28365 130.17669,1.41098 l 126.60854,0.1642 2.59594,-2.59595 z M 163.54271,470.0691 c -0.31644,-0.512 -0.11397,-1.21604 0.44993,-1.56455 1.31489,-0.81265 5.00736,0.3398 5.00736,1.56284 0,1.21364 -4.70737,1.21511 -5.45729,0.002 z m 57.46287,-65.37812 c 0.007,-5.18919 1.7993,-11.9296 2.97851,-11.20082 0.48176,0.29775 1.18427,3.00915 1.56111,6.02533 0.53451,4.27809 0.32035,6.04076 -0.97394,8.0161 -2.20961,3.37229 -3.57251,2.28654 -3.56568,-2.84061 z M 71.48799,483.01943 c 0.71048,-1.14957 -2.2103,-3.30908 -3.44419,-2.5465 -0.57409,0.35481 -1.0438,1.01606 -1.0438,1.46946 0,1.12985 3.8799,2.06096 4.48799,1.07704 z M 50.37565,481.25 c 0.28074,-0.9625 0.82181,-3.9519 1.2024,-6.64312 0.38058,-2.69121 1.49839,-7.55658 2.48403,-10.81192 1.26124,-4.1656 1.41233,-5.60365 0.51006,-4.85483 C 51.99913,461.07554 46.78003,483 48.84471,483 c 0.56129,0 1.25021,-0.7875 1.53094,-1.75 z M 143.25,464.33772 c -0.6875,-0.27741 -1.8125,-0.27741 -2.5,0 -0.6875,0.27741 -0.125,0.50439 1.25,0.50439 1.375,0 1.9375,-0.22698 1.25,-0.50439 z M 60.02006,452.47583 c 0.69572,-0.83829 1.01228,-1.77683 0.70346,-2.08564 -0.30881,-0.30882 -1.06377,0.37706 -1.67768,1.52416 -1.30985,2.44747 -0.8236,2.72772 0.97422,0.56148 z m 89.94476,-5.41009 c 0.56935,-1.06384 1.03518,-2.41384 1.03518,-3 0,-2.1023 -1.97785,-1.00925 -3.5,1.93426 -1.36051,2.63094 -1.368,3 -0.0609,3 0.81977,0 1.95633,-0.87042 2.52568,-1.93426 z M 140,448.11611 c 0,-0.5592 -0.76691,-1.44591 -1.70423,-1.97047 -1.43923,-0.80543 -1.52032,-1.3574 -0.52144,-3.54969 C 138.42486,441.16818 139.41677,440 139.97856,440 140.54035,440 141,439.1 141,438 c 0,-1.1 -0.4132,-2 -0.91821,-2 -0.50502,0 -1.62377,-0.27074 -2.4861,-0.60166 -1.03707,-0.39795 -1.91035,0.19453 -2.5794,1.75 -0.55633,1.29342 -1.56974,3.13434 -2.25202,4.09094 -1.00974,1.41571 -0.93055,2.25287 0.42567,4.5 1.62645,2.6949 6.81006,4.50407 6.81006,2.37683 z M 70.92041,440.26388 C 74.26418,436.55902 77,432.94937 77,432.24244 c 0,-0.70692 -1.2375,-1.83268 -2.75,-2.50168 -1.5125,-0.669 -3.27571,-1.89615 -3.91824,-2.72699 -1.45423,-1.88044 -1.61877,-1.70912 -5.22497,5.44022 -2.20484,4.37111 -2.73089,6.40451 -2.09176,8.08554 0.46962,1.23521 0.60588,3.19412 0.30278,4.35315 -0.9688,3.70471 1.3622,2.28549 7.6026,-4.6288 z m 66.56682,-8.24321 C 138.32977,430.6574 136.21689,427 134.58679,427 c -0.73857,0 -2.03097,-1.0125 -2.87202,-2.25 -1.44652,-2.12839 -1.68281,-2.16685 -4.37197,-0.71166 -3.64256,1.97113 -3.80196,4.55885 -0.25871,4.19982 1.92871,-0.19543 2.87435,0.37521 3.72856,2.25 1.17149,2.57113 5.42858,3.54858 6.67458,1.53251 z m -50.44946,-5.92312 c 1.90423,-1.59635 3.09799,-3.27309 2.65281,-3.72609 -1.16335,-1.18378 -8.10381,2.79869 -8.5021,4.87854 -0.4991,2.60624 1.93861,2.12595 5.84929,-1.15245 z M 132,416.46862 c 0,-0.84227 -0.675,-1.79041 -1.5,-2.10699 -0.825,-0.31659 -1.5,-1.34327 -1.5,-2.28153 0,-0.93825 -1.2375,-2.85489 -2.75,-4.2592 -2.21636,-2.05781 -3.80851,-2.56914 -8.20483,-2.63507 -4.52322,-0.0678 -6.41061,0.49883 -11.0513,3.31789 -3.07806,1.86983 -6.42439,4.31451 -7.43628,5.43264 l -1.8398,2.03296 10.99338,-0.629 c 8.81388,-0.50429 11.95014,-0.30299 15.81925,1.01534 5.99003,2.04101 7.46958,2.06339 7.46958,0.11296 z M 91.25,413.54413 C 95.08856,410.21115 96.04773,408 93.65499,408 c -1.5258,0 -3.82412,2.39182 -5.60751,5.83565 -1.77475,3.42713 -0.99887,3.3565 3.20252,-0.29152 z M 156,414.40429 C 156,412.06346 152.77521,407 151.28439,407 c -2.38975,0 -1.48889,5.63599 1.18043,7.38499 3.07289,2.01343 3.53518,2.01596 3.53518,0.0193 z m -52.27305,-15.32243 c 2.87482,-1.58505 6.62047,-4.27543 8.32366,-5.97863 l 3.09672,-3.09672 -2.63914,-1.0034 c -3.32592,-1.26451 -5.44534,-0.19056 -10.32477,5.23177 -2.02588,2.25129 -4.24592,4.66227 -4.93342,5.35775 -3.35817,3.39715 -0.15237,3.14434 6.47695,-0.51077 z m 298.80517,-5.13384 C 404.17207,391.29453 402.95607,380 401.03044,380 c -2.05559,0 -3.82119,9.77577 -2.42345,13.41821 0.69001,1.79814 2.95252,2.10353 3.92513,0.52981 z M 188.62857,282.25 c -0.27841,-0.9625 -1.66394,-5.8 -3.07896,-10.75 -1.41502,-4.95 -3.73041,-12.375 -5.1453,-16.5 -1.4149,-4.125 -2.94971,-9.01752 -3.41069,-10.87226 -0.46098,-1.85475 -1.22941,-3.76353 -1.70763,-4.24175 -1.2003,-1.2003 -7.19045,1.19363 -7.71731,3.08419 -2.787,10.00069 -3.02063,18.02982 -0.52463,18.02982 0.55327,0 1.27393,-1.33991 1.60146,-2.97757 0.32754,-1.63767 1.1703,-3.45461 1.87282,-4.03764 1.70949,-1.41875 4.65374,2.3374 6.386,8.14698 2.85389,9.57124 4.52918,13.55059 7.41721,17.61823 3.10526,4.37361 5.20084,5.58998 4.30703,2.5 z m 145.95952,-44.61895 c 0.32402,-0.8444 0.30004,-2.00304 -0.0533,-2.57476 -0.75029,-1.21399 4.5957,-9.33386 7.47139,-11.34806 1.08423,-0.75943 3.56973,-4.44735 5.52334,-8.19537 3.2298,-6.19643 3.52563,-7.44961 3.26124,-13.8148 L 350.5,194.69787 344,192.7929 c -3.575,-1.04773 -8.16764,-2.2657 -10.20586,-2.70659 -3.1389,-0.67898 -8.35322,-4.14284 -12.29414,-8.16697 -6.42143,-6.557 -13.42569,-14.04214 -15.17433,-16.21612 C 304.20084,163.06154 300,161.96342 300,164.04966 c 0,3.68579 13.47426,18.41308 17.5,19.1274 1.54602,0.27432 2.00826,1.15558 2.03638,3.88238 0.023,2.23186 2.13368,7.73544 5.7465,14.98403 7.40846,14.86404 8.61356,21.21384 6.5189,34.3489 -0.37059,2.32388 1.9705,3.36463 2.78631,1.23868 z M 220.42997,223.11331 c 0.30141,-0.48768 -0.082,-1.40954 -0.85195,-2.04856 -1.55873,-1.29363 -3.15488,0.19286 -2.07802,1.93525 0.7652,1.23812 2.20049,1.29363 2.92997,0.11331 z m -52.16545,-1.2797 c 5.23324,-2.30786 5.30382,-2.4603 6.15306,-13.2887 0.55196,-7.03782 -0.99125,-25.46321 -2.23935,-26.73721 -0.37303,-0.38076 -2.56083,-0.43802 -4.86178,-0.12724 l -4.18355,0.56505 -0.68295,6.37725 c -0.74785,6.98335 -0.0261,6.42151 -8.75701,6.81677 -3.17572,0.14377 -4.79777,2.08818 -4.21455,5.05216 0.21734,1.10457 0.65646,4.62912 0.97582,7.83232 0.31936,3.20321 1.47428,7.57566 2.56649,9.71657 3.28604,6.44116 7.09174,7.38811 15.24382,3.79303 z m 73.22271,-0.81294 c 1.67,-2.70212 -4.53762,-7.34363 -7.43039,-5.5558 -1.79963,1.11223 -1.1879,2.29101 2.31119,4.45357 3.82759,2.36558 4.27841,2.46265 5.1192,1.10223 z M 198,177.96862 C 198,177.43588 197.325,177 196.5,177 c -0.825,0 -1.5,0.17686 -1.5,0.39301 0,0.21616 0.675,0.65203 1.5,0.96862 0.825,0.31658 1.5,0.13972 1.5,-0.39301 z m -27.34123,-3.52176 c 0.56035,-1.46025 -1.15174,-12.27316 -2.09221,-13.21363 -0.23842,-0.23843 -0.91344,-0.13688 -1.50003,0.22565 -1.7086,1.05597 -1.31568,11.14911 0.5049,12.96969 1.95795,1.95796 2.34214,1.96023 3.08734,0.0183 z m 147.90226,-6.54561 c 1.18329,-1.9146 -4.83637,-9.36575 -7.85074,-9.71767 -4.04744,-0.47254 -3.41813,1.90923 1.76737,6.68906 4.91501,4.5305 5.09865,4.62192 6.08337,3.02861 z m -50.83429,-0.42241 c 1.26711,-0.88751 1.95142,-2.15396 1.62439,-3.00621 -0.64971,-1.69309 0.95527,-1.9142 3.60423,-0.49652 1.46962,0.78652 1.93607,0.54708 2.4015,-1.23275 0.77318,-2.95663 0.17722,-3.39173 -7.25284,-5.29522 -6.1347,-1.57164 -6.47784,-1.55962 -8.99107,0.31491 -3.99173,2.97729 -3.96484,5.2202 0.0637,5.3159 1.82782,0.0434 2.76082,0.30592 2.07332,0.58333 -1.82982,0.73835 -1.52498,3.00746 0.5,3.72173 0.9625,0.3395 2.20838,0.84478 2.76863,1.12284 0.56024,0.27806 2.0039,-0.18454 3.20811,-1.02801 z M 332,161.47525 c 0,-1.51532 -4.8016,-4.00699 -5.79922,-3.00936 C 325.41931,159.24736 329.10582,163 330.65499,163 331.39474,163 332,162.31386 332,161.47525 Z m -30,-31.94007 c 0,-3.4362 -2.56263,-4.49901 -13.28272,-5.5088 -9.47642,-0.89263 -25.86738,-3.6684 -38.21728,-6.47199 -3.85,-0.874 -8.0125,-1.81486 -9.25,-2.09079 -3.86392,-0.86157 -2.46971,1.09896 2.83451,3.98588 2.79648,1.52203 6.73398,2.87987 8.75,3.01741 14.12302,0.96356 25.19721,3.00317 38.66549,7.1213 9.86865,3.01748 10.5,3.0143 10.5,-0.053 z"
     id="path3349" />
  <path
     style="display:inline;fill:#00324d;fill-opacity:1"
     d="m 531.29942,485.36725 c 0.34801,-0.34802 -0.49829,-1.52244 -1.88068,-2.60983 -1.38238,-1.08738 -5.25094,-7.44014 -8.59678,-14.11724 C 512.72519,452.48192 502.59281,438 499.38434,438 c -2.94347,0 -4.57508,3.2242 -4.00331,7.91085 0.50653,4.15195 0.4436,4.34372 -0.66058,2.01291 -0.67125,-1.41693 -2.51148,-4.10258 -4.08941,-5.9681 -3.95257,-4.67298 -7.98444,-14.60324 -11.55351,-28.45566 -1.00233,-3.8903 -5.23783,-9.84212 -12.80419,-17.99274 -3.30097,-3.55586 -3.49135,-4.03151 -1.73994,-4.34706 3.47852,-0.62674 3.7759,-1.88982 1.53488,-6.51914 -1.53511,-3.17112 -2.09133,-5.92557 -1.87534,-9.28686 0.30627,-4.76634 0.29799,-4.78013 -3.22691,-5.37387 C 455.66234,369.08697 455,368.32635 455,363.12904 c 0,-4.12147 -0.39857,-5.0476 -3,-6.97092 -1.99482,-1.47483 -3,-3.08878 -3,-4.81689 0,-2.55536 -0.0875,-2.58728 -5.225,-1.90577 -7.61886,1.01068 -8.73599,2.33174 -4.73391,5.59807 3.0809,2.51451 3.16455,2.76507 1.84314,5.521 -1.63408,3.40802 -5.15537,5.41027 -9.5509,5.43073 -1.74166,0.008 -3.34822,0.55942 -3.57013,1.22515 -0.24523,0.73568 -2.33699,-0.44762 -5.33334,-3.01705 -2.71142,-2.3251 -6.49589,-5.00728 -8.40993,-5.96041 -1.91403,-0.95312 -4.5325,-3.30795 -5.81881,-5.23295 -3.49932,-5.23682 -6.13274,-4.73172 -9.12377,1.75 -3.82153,8.28145 -3.88074,8.13205 -4.32878,-10.92231 -0.24243,-10.31016 -0.61957,-13.02766 -2.02327,-14.57874 -2.24107,-2.47635 -2.19723,-6.44457 0.10257,-9.28471 l 1.82787,-2.25733 2.17213,3.51458 c 1.19467,1.93302 2.17213,4.42411 2.17213,5.53576 0,2.90669 3.02055,6.05782 6.5,6.78099 1.65,0.34294 2.55,0.24963 2,-0.20736 -2.23774,-1.85929 -8.84545,-12.62717 -11.07329,-18.04495 -1.32754,-3.22837 -2.38973,-7.87422 -2.40297,-10.51025 -0.0212,-4.21662 -0.34295,-4.88939 -2.9941,-6.26035 -3.89557,-2.01448 -5.0372,-4.3475 -4.79953,-9.80834 0.23622,-5.42754 -1.56951,-8.08961 -4.91736,-7.24935 -1.82836,0.45889 -2.58522,0.0385 -3.48471,-1.93571 C 377.19605,278.13487 376.29006,277 375.81473,277 c -0.47533,0 -1.33697,-1.2375 -1.91477,-2.75 -0.83262,-2.17957 -0.63947,-3.78714 0.9312,-7.75 1.08995,-2.75 2.25843,-6.24158 2.59662,-7.75908 0.61155,-2.74413 0.62966,-2.74968 3.34355,-1.024 4.0852,2.59764 4.68114,4.04951 5.24701,12.78308 0.50256,7.75651 0.56057,7.90869 1.906,5 1.48289,-3.20586 1.55753,-6.00149 0.52697,-19.73789 -0.61634,-8.21533 -0.49993,-9.00343 1.94657,-13.17807 3.48456,-5.94596 3.28652,-9.16781 -1.10968,-18.05238 -3.32856,-6.72688 -3.5476,-7.63205 -2.12144,-8.76654 0.87471,-0.69582 1.83686,-2.9226 2.13811,-4.9484 0.46232,-3.10893 0.17488,-3.92758 -1.84338,-5.25 C 386.14637,204.70502 384.37953,204 383.53518,204 c -2.03713,0 -1.9556,-1.9721 0.14504,-3.50812 1.52942,-1.11834 1.4621,-1.34195 -0.75,-2.49142 -2.84341,-1.47752 -9.88891,-8.11745 -9.91339,-9.34273 -0.009,-0.46325 -0.81492,-1.85687 -1.79036,-3.09694 -1.32654,-1.68643 -1.75817,-3.99447 -1.7126,-9.15773 0.0541,-6.12961 0.30883,-7.01366 2.27352,-7.89019 2.396,-1.06894 2.78681,-2.03996 1.21261,-3.01287 -0.55,-0.33992 -1,-1.88147 -1,-3.42566 0,-4.29245 -3.93671,-13.03586 -5.58466,-12.40348 -0.94835,0.36392 -2.60122,-2.07145 -5.3082,-7.82119 -3.00521,-6.38321 -5.82047,-10.34309 -11.95373,-16.81379 -7.70398,-8.12784 -8.09798,-8.39602 -9.91681,-6.75 -1.04174,0.94276 -2.42115,1.71412 -3.06534,1.71412 -1.42708,0 -1.56554,3.63829 -0.17126,4.5 0.55,0.33992 1,1.30223 1,2.13847 0,1.15806 -0.69232,1.36838 -2.9048,0.88244 -1.66631,-0.36598 -3.18373,-0.18668 -3.55902,0.42054 -1.08924,1.76243 -4.22001,1.19474 -7.20945,-1.30727 -1.5547,-1.3012 -5.26804,-3.59872 -8.25187,-5.1056 -4.54341,-2.29448 -6.20311,-2.63657 -10.21181,-2.1048 -3.29151,0.43663 -5.93,0.15726 -8.44698,-0.8944 C 291.83122,116.61371 290,116.59239 290,118.45468 c 0,3.62814 -11.49985,2.86652 -29.5,-1.95375 -4.95,-1.32557 -14.90118,-3.40524 -22.11374,-4.62151 -12.37162,-2.08624 -13.41856,-2.12167 -18.5,-0.62608 -2.96244,0.87193 -4.46891,1.62162 -3.3477,1.66598 2.3285,0.0921 8.90145,3.26391 11.34316,5.47363 0.90359,0.81773 3.13258,1.44443 4.95332,1.39267 2.45492,-0.0698 5.23809,1.24599 10.76957,5.0915 8.74216,6.07759 13.39539,7.5532 13.39539,4.24788 0,-3.57642 3.49767,-2.51689 11.20052,3.3929 3.95563,3.03485 7.66623,5.36006 8.24577,5.16714 2.33654,-0.77781 1.53464,-3.4503 -1.40002,-4.66587 -1.67545,-0.694 -3.04627,-1.65722 -3.04627,-2.14049 0,-1.42789 5.45399,-1.00254 7.55887,0.58952 1.06762,0.8075 2.7278,1.4825 3.68929,1.5 1.91468,0.0348 8.26564,9.32554 6.73776,9.85655 -0.51392,0.17861 -1.94612,-0.38389 -3.18267,-1.25 -2.4021,-1.6825 -7.3454,-2.12459 -8.20497,-0.73378 -0.28586,0.46254 0.81258,1.82601 2.44099,3.02994 2.97381,2.19863 3.98799,5.12909 1.77509,5.12909 -0.65211,0 -3.23961,-1.70886 -5.75,-3.79746 C 270.73744,139.93865 262.19925,136 257.11514,136 c -3.82821,0 -4.09714,0.16512 -3.15032,1.93426 1.54499,2.88685 1.257,4.86056 -0.80471,5.51492 -2.668,0.84679 -4.61636,4.91314 -3.39757,7.09098 0.70801,1.26514 0.28686,4.02768 -1.50205,9.85281 -2.06636,6.72856 -2.29812,8.61407 -1.3732,11.17188 0.61199,1.69243 1.11271,4.0577 1.11271,5.25615 0,1.74979 0.5853,2.179 2.97141,2.179 2.5101,0 3.1043,-0.50456 3.82741,-3.25 0.68008,-2.58205 1.35391,-3.23 3.2786,-3.1527 1.33242,0.0535 3.12651,0.4071 3.98688,0.78573 1.01993,0.44886 2.66975,-0.368 4.7409,-2.3473 3.83972,-3.66945 6.44926,-3.81241 11.14105,-0.61038 4.29199,2.92919 5.39371,3.1587 10.5972,2.20767 5.09253,-0.93076 11.60042,1.69806 16.10632,6.50604 4.52067,4.82376 11.0967,15.41493 11.89612,19.15957 0.37589,1.76075 1.76351,5.79116 3.0836,8.95645 2.93187,7.03004 5.37051,18.22323 5.37051,24.65033 0,5.57714 -2.98992,17.90737 -6.43479,26.53665 -1.33011,3.33187 -2.74183,8.93489 -3.13716,12.45117 -0.66444,5.90977 -1.14924,6.89282 -6.41115,13 -7.07478,8.21126 -7.30109,8.39018 -14.0169,11.08237 -3.025,1.21264 -9.46111,4.18921 -14.30247,6.6146 -9.48241,4.75043 -14.39077,5.48081 -21.838,3.24957 -3.50237,-1.04934 -4.38989,-0.89847 -9.2853,1.57838 -4.41703,2.23482 -5.7965,2.53326 -7.49862,1.62232 -2.39763,-1.28318 -8.18346,0.32057 -14.40971,3.99415 -2.84228,1.67699 -4.56218,2.03005 -7.43199,1.52563 -7.99834,-1.40582 -14.06971,-3.64831 -17.71002,-6.54127 C 197.29912,302.86686 196,303.084 196,308.10941 l 0,4.1094 -3.58549,-0.41858 c -3.534,-0.41258 -3.57621,-0.37465 -2.93888,2.64059 1.67171,7.90889 0.57075,11.41754 -2.60956,8.3164 -0.75134,-0.73264 -3.08651,-2.38479 -5.18927,-3.67145 -5.00937,-3.06518 -6.37033,-1.89709 -4.84544,4.15877 0.60582,2.40593 1.37888,8.84765 1.71791,14.31494 0.64372,10.38082 2.65537,16.46333 5.42813,16.41274 0.83743,-0.0153 2.8351,-1.36528 4.43927,-3 C 190.02083,349.3375 191.85802,348 192.4993,348 c 1.20995,0 6.40133,6.00515 8.21263,9.5 1.58322,3.05478 0.0421,12.06847 -2.53186,14.80833 -2.67815,2.85076 -2.92578,5.23301 -0.43007,4.13741 2.08838,-0.91679 6.11623,-0.91284 7.03596,0.007 1.40037,1.40037 -2.50513,2.62 -6.90847,2.15741 -4.04685,-0.42514 -4.94381,-0.15025 -7.20249,2.2073 -2.34941,2.45225 -3.22492,2.68723 -9.79716,2.62945 -6.18368,-0.0544 -7.32604,-0.3415 -7.97724,-2.00512 -1.43227,-3.65904 -0.99804,-7.27597 0.94764,-7.8935 1.9414,-0.61629 4.77653,-5.54828 3.18934,-5.54828 -0.50575,0 -1.2202,0.48646 -1.58766,1.08103 -0.36746,0.59456 -1.63152,0.85713 -2.80901,0.58349 -3.53321,-0.82109 -12.76238,4.32612 -15.84237,8.83548 -3.32729,4.87141 -3.66497,7.03407 -0.86428,5.53518 1.06384,-0.56935 2.22839,-1.03518 2.5879,-1.03518 0.76397,0 -0.11993,6.64662 -1.70108,12.79154 -0.82392,3.20204 -0.80677,4.94445 0.0676,6.8634 l 1.17182,2.57187 2.50692,-2.70502 c 3.10194,-3.34704 4.30636,-2.55512 6.84313,4.49942 1.19676,3.32806 2.67876,5.51797 4.2048,6.21328 1.29615,0.59057 3.03675,2.11174 3.86799,3.38037 1.54871,2.36362 8.64255,4.93456 11.05807,4.00764 1.01706,-0.39029 1.2232,-2.53811 0.87237,-9.08989 -0.52759,-9.85308 -0.0927,-11.05885 6.41426,-17.78261 3.23433,-3.34211 5.39134,-4.75 7.27742,-4.75 1.47433,0 2.93962,-0.675 3.25621,-1.5 1.30257,-3.39445 3.36505,-1.45622 3.99039,3.75 1.17219,9.75899 0.75482,12.75948 -2.79803,20.11535 -3.91518,8.10604 -5.90384,10.62177 -9.75589,12.34161 -1.48605,0.66348 -3.38266,2.52278 -4.21471,4.13177 -1.06906,2.06734 -2.5177,3.11397 -4.93869,3.56815 -1.88424,0.35348 -5.38762,2.20217 -7.78529,4.1082 -4.35279,3.46024 -9.99476,4.69296 -11.36104,2.48229 -0.81798,-1.32352 -7.9321,-4.51652 -13.2029,-5.92579 -4.86229,-1.30005 -9.72324,-5.06432 -11.84958,-9.17621 -0.81525,-1.57652 -2.52152,-3.12723 -3.79173,-3.44603 -1.77081,-0.44445 -2.60713,-1.74112 -3.58577,-5.55956 -0.79605,-3.10601 -2.13069,-5.53972 -3.54683,-6.46761 -1.37964,-0.90397 -2.49917,-2.89678 -2.85329,-5.07896 -0.32053,-1.9752 -1.23618,-4.32295 -2.03477,-5.21724 -2.00086,-2.2406 -2.32522,-7.04179 -0.73509,-10.88071 0.73114,-1.76514 1.09044,-3.83194 0.79843,-4.5929 -0.78452,-2.04442 -8.44912,-1.21163 -11.8259,1.28494 -1.53447,1.13448 -3.37068,2.0701 -4.08045,2.07915 -1.30989,0.0167 -5.32545,2.31022 -12.55689,7.17198 -2.19934,1.47864 -5.73588,4.80832 -7.85898,7.39928 -2.1231,2.59096 -5.72548,5.88116 -8.0053,7.31156 -2.27981,1.4304 -6.51638,5.41323 -9.4146,8.85073 -5.01009,5.94233 -6.95472,7.42272 -6.95472,5.29441 0,-0.52558 1.125,-2.61337 2.5,-4.63955 4.42595,-6.522 3.12878,-8.92237 -2.22068,-4.10932 -1.73112,1.55753 -2.52859,1.74247 -3.61733,0.8389 -2.46826,-2.04848 -3.59864,1.01149 -4.22929,11.44881 -0.5325,8.81285 -0.3673,10.35772 1.48405,13.87819 1.14579,2.17879 2.08325,4.46264 2.08325,5.07521 0,0.61257 -1.99233,3.67949 -4.42739,6.81538 -2.46804,3.17833 -5.35293,8.48285 -6.51875,11.98612 -2.36593,7.10961 -5.09009,21.53948 -4.16436,22.0586 1.12019,0.62817 93.53086,0.63652 98.78836,0.009 3.91561,-0.46741 5.04469,-0.96513 4.63157,-2.04168 -0.31459,-0.81981 -1.28443,-1.18931 -2.28667,-0.87121 -0.95722,0.30381 -2.30903,-0.13278 -3.00402,-0.9702 -0.695,-0.83742 -2.25853,-1.52258 -3.47452,-1.52258 -1.21599,0 -2.54823,-0.3375 -2.96053,-0.75 -0.41231,-0.4125 -1.72481,-0.8292 -2.91667,-0.926 -5.13853,-0.41734 -7.94292,-1.15237 -8.62841,-2.26153 -0.40369,-0.65318 -3.15241,-1.41225 -6.10827,-1.68681 -2.95586,-0.27457 -5.8369,-0.88169 -6.40232,-1.34915 -0.56541,-0.46746 -2.15302,-0.83066 -3.52802,-0.80712 -1.375,0.0236 -6.1,-0.32385 -10.5,-0.772 -10.39044,-1.05828 -11.65368,-1.02186 -20.16698,0.58146 -6.51271,1.22656 -7.52891,1.18657 -11.13166,-0.43805 -4.52082,-2.0386 -6.81806,-1.35093 -9.5828,2.86859 -2.88022,4.39578 -3.94735,3.16336 -3.17465,-3.66641 0.99891,-8.82919 2.40685,-11.53627 11.5741,-22.25378 9.32981,-10.90757 15.32701,-16.35277 18.95517,-17.21047 1.38975,-0.32854 3.20182,-1.14923 4.02682,-1.82376 2.18382,-1.78551 14.07865,-7.25747 17,-7.82049 1.375,-0.265 3.94533,-1.06959 5.71183,-1.78798 4.21713,-1.71499 5.38952,-0.38541 2.11427,2.39775 -3.64575,3.098 -6.02587,8.51974 -5.26363,11.99017 0.40753,1.85546 0.11094,3.43711 -0.84998,4.53274 -2.22664,2.53879 -3.03001,6.09532 -1.73054,7.66109 0.8978,1.08178 0.69837,1.62247 -0.91738,2.48719 -1.13552,0.60771 -2.06457,1.82699 -2.06457,2.7095 0,0.88252 -0.7875,2.21106 -1.75,2.95231 -5.5849,4.30113 15.74322,8.61961 25.85078,5.23423 1.86957,-0.62619 4.29922,-1.93648 5.39922,-2.91175 1.1433,-1.01367 4.5701,-2.0839 8,-2.4985 5.31155,-0.64204 6.50358,-1.22671 10.38882,-5.09548 3.16372,-3.15032 4.72881,-4.08805 5.60684,-3.35936 0.66991,0.55598 2.56859,0.74076 4.21928,0.41062 2.49548,-0.49909 3.09608,-0.23767 3.5639,1.55126 0.41506,1.58721 -0.007,2.36929 -1.60811,2.98185 -1.1939,0.4567 -3.06967,1.82807 -4.16837,3.0475 -1.0987,1.21942 -3.17791,2.82748 -4.62045,3.57345 -1.44255,0.74597 -3.58342,3.3999 -4.75749,5.89762 -1.19374,2.53957 -2.82329,4.54131 -3.69693,4.54131 -1.51273,0 -1.45613,-1.03232 0.31507,-5.74568 0.35616,-0.94779 -1.0517,-1.1118 -5.88723,-0.68585 -13.32254,1.17356 -14.0527,2.2849 -3.60533,5.48756 3.9875,1.22238 8.375,3.00213 9.75,3.95499 1.375,0.95287 4.75,2.92719 7.5,4.38739 2.75,1.4602 6.35,3.53634 8,4.61366 1.65,1.07731 5.25,3.0288 8,4.33663 l 5,2.37788 143.16992,0.21679 143.16992,0.21678 2.08008,-2.08007 c 2.62846,-2.62846 4.47241,-2.61876 8.78441,0.0462 3.10068,1.91632 4.05043,2.0275 9.61804,1.12592 3.39766,-0.55027 7.07759,-0.66498 8.17759,-0.25498 2.36176,0.88029 8.28887,0.15332 9.07125,-1.1126 0.81338,-1.31606 5.39977,-1.04516 9.92875,0.58646 3.97627,1.43251 19.59031,2.10519 20.79942,0.89609 z M 146.09394,438.38681 c 1.45303,-1.7508 2.38084,-1.06645 1.53666,1.13344 -0.33906,0.88358 -1.0915,1.31293 -1.6721,0.9541 -0.72494,-0.44804 -0.68251,-1.10197 0.13544,-2.08754 z M 79.81667,421.78333 c 0.71756,-0.71756 1.18333,-0.7766 1.18333,-0.15 0,0.56834 -0.3,1.33334 -0.66667,1.7 -0.36666,0.36667 -0.89916,0.43417 -1.18333,0.15 -0.28417,-0.28416 0.0158,-1.04916 0.66667,-1.7 z m 18.36524,-11.8913 c 1.27495,-1.70939 2.99309,-4.16766 3.81809,-5.46283 2.3217,-3.64484 6.27859,-6.24167 10.05908,-6.6016 1.89251,-0.18018 3.36049,-0.7776 3.26218,-1.3276 -0.19216,-1.07507 2.57077,-4.5 3.63019,-4.5 1.39648,0 0.43836,4.91256 -1.34166,6.87908 -1.03962,1.14855 -4.34379,3.47298 -7.34262,5.16541 -2.99882,1.69243 -7.27825,4.39978 -9.50983,6.01633 -5.11085,3.70229 -5.4463,3.6803 -2.57543,-0.16879 z m 124.5176,-5.23271 c -0.28296,-0.73738 -0.11299,-1.97488 0.3777,-2.75 0.6493,-1.02567 0.89633,-0.66071 0.90748,1.34068 0.0166,2.98623 -0.47372,3.52394 -1.28518,1.40932 z M 453,391.5 c -0.86418,-1.04127 -0.93093,-1.88227 -0.21826,-2.75 0.56464,-0.6875 1.18224,-2.375 1.37244,-3.75 0.22163,-1.6022 1.06406,-2.59184 2.34582,-2.75573 3.04465,-0.3893 4.51141,1.05122 5.1638,5.07138 0.51759,3.18956 0.29073,3.77478 -1.78544,4.6057 -3.47981,1.3927 -5.47423,1.27053 -6.87836,-0.42135 z m -284.99191,-5.51511 c 0.9059,-1.6927 1.41644,-1.87745 2.56165,-0.92701 2.02949,1.68433 1.77642,3.59596 -0.81974,6.19212 l -2.25,2.25 -0.31165,-2.70055 c -0.17141,-1.4853 0.19747,-3.65185 0.81974,-4.81456 z M 183,346.05902 c 0,-2.28437 1.57662,-3.55308 2.51951,-2.02744 C 186.35955,345.39077 185.38111,348 184.03138,348 183.46412,348 183,347.12656 183,346.05902 Z m 12.55279,-6.14443 c 0.32197,-0.52097 1.01165,-0.68378 1.53262,-0.3618 0.52097,0.32197 0.68378,1.01165 0.3618,1.53262 -0.32197,0.52097 -1.01165,0.68378 -1.53262,0.3618 -0.52097,-0.32197 -0.68378,-1.01165 -0.3618,-1.53262 z M 375.8875,313.7125 c 0.81667,-0.81667 1.1125,-0.70476 1.1125,0.42083 0,1.98786 -1.3447,3.33256 -1.84167,1.84167 -0.21083,-0.6325 0.1173,-1.65063 0.72917,-2.2625 z M 387,309.80887 c 0,-3.86129 1.69289,-3.52075 3.72957,0.75023 1.47533,3.09378 1.5059,3.67967 0.23382,4.48134 C 389.03752,316.25415 387,313.56468 387,309.80887 Z M 363.0579,261.25 c 0.21637,-9.07148 -1.54191,-20.25 -3.18514,-20.25 -1.09156,0 -1.53971,6.93305 -0.51442,7.95834 1.1292,1.1292 -1.11032,4.31298 -2.45098,3.48441 -0.47631,-0.29438 -1.81731,-0.0261 -2.97999,0.59612 -2.0922,1.11971 -2.10704,1.05069 -1.44142,-6.70376 0.3699,-4.30931 0.87087,-8.73511 1.11327,-9.83511 0.50336,-2.28427 1.21184,-3.19511 -6.09922,7.84142 -3.17313,4.79005 -4.8725,6.34962 -8.2207,7.5444 -2.32138,0.82836 -4.53164,1.19517 -4.9117,0.81512 -1.0112,-1.0112 1.61342,-8.28666 4.306,-11.93624 1.27952,-1.73429 2.3264,-4.21129 2.3264,-5.50443 0,-1.29315 1.13064,-3.48182 2.51254,-4.86372 1.3819,-1.3819 3.5968,-4.65221 4.922,-7.26736 3.07464,-6.06751 4.81201,-7.52153 7.76747,-6.50066 1.2639,0.43658 3.64799,0.81126 5.29799,0.83262 2.86468,0.0371 3.0055,0.24182 3.12185,4.53885 0.17243,6.3679 3.11395,20.5884 5.02192,24.27803 3.26891,6.32137 1.65352,17.1517 -3.42636,22.97197 -2.84069,3.25472 -3.3945,1.85244 -3.15951,-8 z m -2.64195,-29.41684 c 1.38403,-4.42475 1.44507,-6.70361 0.20706,-7.73107 -1.99367,-1.6546 -3.83284,1.02063 -3.44124,5.00557 0.32528,3.31002 2.48267,5.12808 3.23418,2.7255 z m 15.10973,20.2165 C 373.79486,248.70262 373.58463,247 374.90217,247 c 0.83647,0 3.09783,5.2188 3.09783,7.14922 0,1.64065 -0.96255,0.82388 -2.47432,-2.09956 z m -0.62336,-37.76824 c 0.90968,-1.5629 1.04059,-1.46453 1.06727,0.80191 0.0167,1.42084 -0.30709,2.92371 -0.71959,3.33971 -1.20134,1.21156 -1.48648,-2.18508 -0.34768,-4.14162 z M 372.65907,207 c -0.97468,-1.65 -2.18514,-3 -2.68993,-3 C 368.98141,204 366,198.77928 366,197.04966 c 0,-2.42614 4.43603,-0.74768 8.71903,3.29903 l 4.60261,4.34869 -1.91082,2.61988 c -1.05095,1.44094 -2.1513,2.63403 -2.44521,2.65132 -0.29392,0.0173 -1.33186,-1.31858 -2.30654,-2.96858 z m -12.65071,-26.97367 c -2.46557,-1.55879 0.26357,-3.34515 3.8928,-2.54804 3.20422,0.70377 4.02917,1.97965 1.84884,2.85943 -2.01802,0.81429 -4.14345,0.69902 -5.74164,-0.31139 z M 164.77749,426.4433 c 3.26063,-2.28384 2.73006,-4.02306 -1.77749,-5.82662 -2.38794,-0.95547 -4,-2.26082 -4,-3.23897 0,-0.90116 -1.55206,-4.61731 -3.44901,-8.2581 -1.89696,-3.64078 -3.74208,-8.86961 -4.10028,-11.61961 l -0.65126,-5 -2.35454,4.5 c -3.5807,6.84345 -3.30829,13.41888 0.78936,19.053 1.77884,2.44585 3.61259,4.60825 4.075,4.80533 0.4624,0.19709 2.36698,1.88459 4.2324,3.75 3.87293,3.87294 4.20572,3.95733 7.23582,1.83497 z m 33.6798,-5.3742 c 0.31644,-0.512 0.11799,-1.21356 -0.44098,-1.55902 -0.55897,-0.34546 -1.01631,0.0734 -1.01631,0.9309 0,1.75653 0.60006,2.01516 1.45729,0.62812 z M 75.99638,389.78245 c 1.20907,-2.31966 1.817,-4.35197 1.35096,-4.51626 -2.63886,-0.93025 -3.53619,-2.40353 -3.58248,-5.8819 -0.072,-5.40959 1.86526,-12.01462 4.616,-15.73824 1.27824,-1.73033 2.64202,-3.70855 3.03063,-4.39605 1.24674,-2.20569 -2.11624,-1.36931 -5.31429,1.32167 -1.68094,1.41442 -3.49289,2.30181 -4.02656,1.97199 -1.31253,-0.81119 -2.53939,1.74391 -4.45931,9.28711 -1.86061,7.31015 -2.03622,13.09912 -0.55875,18.41923 0.89239,3.21333 1.44959,3.75 3.89346,3.75 2.33773,0 3.24844,-0.76054 5.05034,-4.21755 z m 59.33695,-9.44912 C 136.24957,379.4171 136.1764,376 135.24053,376 c -1.11685,0 -3.22522,3.682 -2.51503,4.39219 0.79339,0.79339 1.77778,0.77117 2.60781,-0.0589 z M 112.5,379 c 0.33992,-0.55 0.14148,-1 -0.44098,-1 -0.58246,0 -1.05902,0.45 -1.05902,1 0,0.55 0.19844,1 0.44098,1 0.24254,0 0.7191,-0.45 1.05902,-1 z m 322.47393,-34.31851 c -2.13846,-2.30469 -8.60627,-5.73324 -10.34705,-5.48491 -3.78491,0.53995 -2.47123,3.25458 1.87312,3.8707 2.2,0.312 5.125,0.93041 6.5,1.37423 1.375,0.44382 2.26327,0.55181 1.97393,0.23998 z M 420.25,339.31067 C 424.18476,338.28241 421.19838,336 415.91821,336 c -3.60426,0 -3.8042,1.71265 -0.35311,3.02475 1.4108,0.53639 2.6483,0.92305 2.75,0.85925 0.10169,-0.0638 0.9724,-0.3218 1.9349,-0.57333 z M 191.97673,290.5 c 0.0315,-1.248 -5.17175,-20.72217 -9.05754,-33.89937 C 181.31364,251.15598 180,245.94046 180,245.01059 c 0,-0.92986 -0.95343,-5.25015 -2.11872,-9.60063 -1.83076,-6.8349 -2.16028,-11.23982 -2.42451,-32.40996 -0.16818,-13.475 -0.5213,-26.69285 -0.78471,-29.373 -0.26341,-2.68014 -0.10728,-8.75514 0.34696,-13.5 C 176.17744,148.02659 174.169,141 169.55187,141 c -3.11117,0 -6.27253,3.80382 -7.06436,8.5 -0.37095,2.2 -1.53239,5.21928 -2.58098,6.70951 -1.04859,1.49023 -1.90653,4.11986 -1.90653,5.84362 0,2.29879 -0.53597,3.27427 -2.01094,3.65998 -2.79513,0.73094 -3.47833,4.5077 -2.13463,11.80025 1.93924,10.52463 1.06111,12.39841 -2.76856,5.90761 -1.16142,-1.96847 -2.66837,-3.39791 -3.34877,-3.17654 -2.08771,0.67924 -5.83641,8.46326 -6.25092,12.97979 -0.21583,2.35168 -0.66852,5.85078 -1.00598,7.77578 -1.32768,7.5737 5.03725,21.23368 14.02683,30.10342 2.26368,2.23351 2.54002,3.12885 1.94486,6.30134 -0.51231,2.73086 -0.30015,4.01138 0.8113,4.89658 1.8419,1.46696 2.62995,4.69161 3.83646,15.69866 1.96458,17.92283 2.71223,21.42516 4.96324,23.25 1.18727,0.9625 2.55883,1.75 3.04789,1.75 0.48907,0 0.88922,-3.00555 0.88922,-6.679 0,-10.35513 3.24602,-16.95409 5.04483,-10.25584 1.50809,5.61567 6.34278,13.82337 11.44797,19.43484 3.00227,3.3 5.47004,5.55 5.48393,5 z m 49.82473,-10.32056 c 4.0158,-0.93393 7.24667,-1.91887 7.1797,-2.18875 -0.067,-0.26988 0.34174,-1.70979 0.90825,-3.19981 0.89955,-2.36599 0.69857,-2.96981 -1.58683,-4.76751 -1.65883,-1.30484 -3.38302,-1.83863 -4.70971,-1.45809 -7.71803,2.21384 -19.41123,5.75079 -21.06508,6.37175 -1.76001,0.66082 -1.54307,1.02448 2.01637,3.38 5.33202,3.52857 8.58398,3.87952 17.2573,1.86241 z M 213.3875,265.09433 C 215.52563,263.39245 218.13548,262 219.18716,262 c 1.05169,0 3.34008,-0.7384 5.08531,-1.6409 2.61511,-1.35232 6.5193,-1.64119 22.20034,-1.64255 10.46495,-9.1e-4 20.93969,0.32705 23.27719,0.7288 3.34013,0.57407 4.25,0.42781 4.25,-0.68314 0,-2.22887 -4.16788,-5.48036 -8,-6.24104 -1.925,-0.38212 -7.00215,-1.83373 -11.28256,-3.2258 -8.12049,-2.64094 -11.22359,-2.69574 -24.8187,-0.43832 -5.27543,0.87597 -13.89874,5.20383 -13.89874,6.9755 0,0.4441 -1.60838,2.68648 -3.57417,4.98307 -4.93107,5.76084 -4.3194,8.48229 0.96167,4.27871 z M 148.5,256 c 0.37544,-1.1829 0.45761,-2.37572 0.18261,-2.65072 -0.275,-0.275 -0.80717,0.46782 -1.18261,1.65072 -0.37544,1.1829 -0.45761,2.37572 -0.18261,2.65072 0.275,0.275 0.80717,-0.46782 1.18261,-1.65072 z m 125.86035,-20.69368 c 1.06141,-1.06141 -2.29039,-5.82899 -9.70641,-13.80632 -7.07537,-7.6109 -10.24105,-9.41607 -7.60333,-4.33565 4.41104,8.49595 15.41878,20.03293 17.30974,18.14197 z M 233,232.05902 c 0,-0.51754 -0.47911,-1.23709 -1.06469,-1.599 -0.58558,-0.36191 -2.2815,-3.20097 -3.76872,-6.30902 l -2.70402,-5.651 -5.24247,-0.30265 c -5.74029,-0.33138 -6.95269,0.74765 -5.83658,5.19458 0.7982,3.1803 3.11536,3.91857 6.61648,2.10807 4.1869,-2.16513 6.06126,-0.90799 8.57306,5.75 0.68511,1.81603 3.42694,2.4633 3.42694,0.80902 z m 13.51698,-8.0865 c 1.09417,-1.7704 -2.94057,-7.38377 -6.8086,-9.47252 -3.40991,-1.84137 -3.92198,-1.87837 -6.45603,-0.46658 -4.7867,2.66681 -4.05496,5.10867 2.46922,8.23986 6.00023,2.87973 9.70539,3.46293 10.79541,1.69924 z M 198.9627,181.5397 c 2.87738,-3.06282 4.88045,-3.17053 10.0373,-0.5397 2.15618,1.1 4.24169,2 4.63448,2 1.86336,0 -4.23892,-4.94123 -8.65899,-7.01148 -5.56747,-2.60766 -6.33081,-3.98097 -2.22549,-4.00383 1.5125,-0.008 3.425,-0.46757 4.25,-1.02032 1.27511,-0.85432 1.1259,-1.31813 -0.99522,-3.09355 -3.93315,-3.29211 -12.00649,-1.94707 -22.21624,3.7013 -3.26615,1.80694 -4.88275,7.81006 -2.6661,9.90039 0.75766,0.71448 4.54484,1.59332 8.41595,1.95298 6.65396,0.61819 7.1687,0.5152 9.42431,-1.88579 z M 190,175.16052 C 190,174.43359 194.27122,172 195.54705,172 c 1.53293,0 0.0119,1.78818 -2.29705,2.70058 -1.5125,0.59766 -2.8625,1.13453 -3,1.19304 -0.1375,0.0585 -0.25,-0.27139 -0.25,-0.7331 z m -13.25261,-37.01849 c -0.26722,-1.02188 -0.10676,-2.53539 0.3566,-3.36336 0.9145,-1.63413 -1.79711,-9.77867 -3.25568,-9.77867 -0.96744,0 -1.12744,9.35652 -0.21802,12.75 0.33163,1.2375 1.27797,2.25 2.10297,2.25 0.96945,0 1.32815,-0.65717 1.01413,-1.85797 z m 84.94685,-30.67363 c -2.88533,-2.5384 -6.12044,-3.11746 -8.61062,-1.54124 -1.02842,0.65096 0.0485,1.33156 3.9315,2.48469 7.18336,2.13323 7.99116,1.97035 4.67912,-0.94345 z M 204.65265,72.43324 c 2.83396,-1.37155 5.75896,-3.22976 6.5,-4.12935 1.20728,-1.46559 1.05304,-1.56232 -1.48357,-0.9304 C 206.37252,68.19472 199,72.86559 199,74.13289 c 0,1.10319 -0.36627,1.21332 5.65265,-1.69965 z M 218.5,64.53611 c 1.65,-0.75552 2.325,-1.39427 1.5,-1.41946 -0.825,-0.0252 -2.625,0.59733 -4,1.38335 -3.1833,1.81974 -1.44997,1.84478 2.5,0.0361 z"
     id="path3351" />
</svg>
